<?xml version="1.0" encoding="UTF-8"?>
<svg width="244px" height="105px" viewBox="0 0 244 105" version="1.1" xmlns="http://www.w3.org/2000/svg" xmlns:xlink="http://www.w3.org/1999/xlink">
    <!-- Generator: Sketch 48.1 (47250) - http://www.bohemiancoding.com/sketch -->
    <title>Combined Shape</title>
    <desc>Created with Sketch.</desc>
    <defs></defs>
    <g id="Home" stroke="none" stroke-width="1" fill="none" fill-rule="evenodd" transform="translate(-1067.000000, -2120.000000)" opacity="0.3">
        <g id="FAQ" transform="translate(0.000000, 1996.000000)" fill="#FFFFFF">
            <path d="M1173.54882,207.063973 C1171.50947,207.063973 1169.76428,206.338445 1168.3132,204.887367 C1166.86213,203.43629 1166.1366,201.691101 1166.1366,199.651749 C1166.1366,197.612396 1166.86213,195.867208 1168.3132,194.41613 C1169.76428,192.965052 1171.50947,192.239524 1173.54882,192.239524 C1175.58817,192.239524 1177.31375,192.965052 1178.72561,194.41613 C1180.13747,195.867208 1180.84339,197.612396 1180.84339,199.651749 C1180.84339,201.691101 1180.13747,203.43629 1178.72561,204.887367 C1177.31375,206.338445 1175.58817,207.063973 1173.54882,207.063973 Z M1156.6066,145.88371 C1156.6066,147.923062 1157.62626,149.609424 1159.66561,150.942847 C1159.58717,150.6291 1159.54795,150.236923 1159.54795,149.766303 C1159.54795,148.66819 1159.95974,147.746574 1160.78332,147.001426 C1161.60691,146.256278 1162.64618,145.88371 1163.90117,145.88371 C1167.35238,145.88371 1169.07796,147.609289 1169.07796,151.060501 C1169.07796,153.335163 1168.17595,155.237223 1166.37191,156.766737 C1164.56786,158.296251 1162.33245,159.060997 1159.66561,159.060997 C1156.2144,159.060997 1153.37111,157.904074 1151.13567,155.590194 C1148.90022,153.276313 1147.78252,150.315375 1147.78252,146.70729 C1147.78252,140.118613 1150.58659,134.686958 1156.19481,130.412162 C1161.80302,126.137366 1168.99948,124 1177.78438,124 C1186.49084,124 1193.49121,126.039322 1198.78568,130.118026 C1204.08015,134.196731 1206.72735,139.569559 1206.72735,146.236673 C1206.72735,154.629392 1202.57027,160.943446 1194.25599,165.179023 C1192.84413,165.884953 1191.04011,166.708525 1188.84389,167.649765 C1184.21613,169.61068 1181.0591,171.493131 1179.37271,173.297174 C1177.68632,175.101216 1176.84314,177.493497 1176.84314,180.474089 C1176.84314,182.670315 1176.64706,184.160588 1176.25487,184.944955 C1175.62738,186.121504 1174.37241,186.70977 1172.48993,186.70977 C1169.19559,186.70977 1167.54845,184.670448 1167.54845,180.591744 C1167.54845,176.826785 1168.48968,173.610932 1170.37215,170.944087 C1172.72525,167.728185 1177.0392,164.394678 1183.31413,160.943467 C1188.96157,157.884438 1192.60882,155.413722 1194.25599,153.531242 C1195.90316,151.648763 1196.72673,149.099611 1196.72673,145.88371 C1196.72673,141.569695 1194.96193,138.098926 1191.43228,135.471299 C1187.90264,132.843672 1183.23573,131.529879 1177.43142,131.529879 C1171.54867,131.529879 1166.60724,132.922108 1162.60697,135.706608 C1158.6067,138.491108 1156.6066,141.883442 1156.6066,145.88371 Z M1228.19006,226.869578 C1225.83522,225.51001 1224.30373,223.508783 1223.59555,220.865838 C1222.88738,218.222893 1223.21307,215.724037 1224.57264,213.369196 C1225.93221,211.014355 1227.93343,209.482869 1230.57638,208.774694 C1233.21932,208.066519 1235.71818,208.392211 1238.07302,209.751779 C1240.42786,211.111347 1241.93671,213.099502 1242.5996,215.716301 C1243.26249,218.333101 1242.91415,220.818884 1241.55458,223.173725 C1240.19501,225.528566 1238.21643,227.073124 1235.61877,227.807445 C1233.02111,228.541765 1230.5449,228.229146 1228.19006,226.869578 Z M1249.4137,144.929877 C1248.05413,147.284718 1248.10729,149.911735 1249.57319,152.811007 C1249.69178,152.396433 1249.90795,151.917441 1250.22169,151.374016 C1250.95377,150.106024 1252.04367,149.316357 1253.49143,149.004991 C1254.93919,148.693625 1256.38761,148.956266 1257.83674,149.792924 C1261.82186,152.093731 1262.664,155.236646 1260.36319,159.221762 C1258.84675,161.848315 1256.53716,163.443286 1253.43436,164.006722 C1250.33155,164.570158 1247.24049,163.962937 1244.16109,162.18504 C1240.17597,159.884232 1237.66411,156.652809 1236.62543,152.490674 C1235.58675,148.328539 1236.27009,144.164406 1238.67548,139.998148 C1243.06793,132.3902 1249.92689,127.987643 1259.25257,126.790346 C1268.57825,125.593049 1278.31291,127.922667 1288.45684,133.779268 C1298.5102,139.583578 1305.23397,146.605294 1308.62837,154.844624 C1312.02276,163.083955 1311.4976,171.05276 1307.05285,178.75128 C1301.45771,188.442357 1292.44816,192.961812 1280.02393,192.309781 C1277.92304,192.183679 1275.29089,191.931982 1272.12742,191.554681 C1265.47646,190.733777 1260.57607,190.80276 1257.42611,191.76163 C1254.27614,192.720501 1251.70766,194.920748 1249.7206,198.362439 C1248.25645,200.898422 1247.03651,202.488516 1246.06075,203.132769 C1244.55181,204.073002 1242.71052,203.915629 1240.53682,202.660643 C1236.73285,200.464417 1236.19044,197.011515 1238.90958,192.301832 C1241.41955,187.954433 1244.65028,184.868569 1248.60188,183.044147 C1253.46294,180.899477 1260.6666,179.926241 1270.21307,180.124412 C1278.77352,180.357108 1284.63215,179.935669 1287.78912,178.860083 C1290.94609,177.784496 1293.59651,175.390037 1295.74044,171.676633 C1298.61645,166.695238 1298.89248,161.511008 1296.56855,156.123787 C1294.24461,150.736566 1289.73159,146.108254 1283.02935,142.238714 C1276.23654,138.316883 1269.60251,136.630202 1263.12707,137.17862 C1256.65162,137.727039 1252.08055,140.310765 1249.4137,144.929877 Z M1108.55356,206.948297 C1107.00103,207.63953 1105.42652,207.678721 1103.83,207.065872 C1102.23347,206.453023 1101.08961,205.370347 1100.39838,203.817813 C1099.70714,202.265279 1099.66795,200.690772 1100.2808,199.094246 C1100.89365,197.497719 1101.97632,196.353857 1103.52886,195.662624 C1105.08139,194.971391 1106.64097,194.938846 1108.20764,195.564988 C1109.77431,196.19113 1110.90325,197.280452 1111.59448,198.832986 C1112.28571,200.38552 1112.33983,201.953381 1111.75684,203.536614 C1111.17385,205.119848 1110.1061,206.257064 1108.55356,206.948297 Z M1074.91877,166.115024 C1075.61001,167.667558 1076.95785,168.605754 1078.96234,168.92964 C1078.79629,168.717374 1078.6335,168.432107 1078.47399,168.07383 C1078.10179,167.23785 1078.10289,166.396661 1078.47731,165.550237 C1078.85173,164.703813 1079.51664,164.067924 1080.47204,163.64255 C1083.09941,162.472771 1084.99795,163.201554 1086.16773,165.82892 C1086.93872,167.560592 1086.89673,169.31434 1086.04176,171.090216 C1085.18679,172.866092 1083.7442,174.20597 1081.71397,175.109889 C1079.0866,176.279668 1076.52991,176.36264 1074.04381,175.358808 C1071.55771,174.354977 1069.70321,172.479693 1068.48026,169.732902 C1066.24705,164.717022 1066.54071,159.631538 1069.36124,154.476298 C1072.18178,149.321057 1076.9359,145.254689 1083.62374,142.277071 C1090.25187,139.326039 1096.27238,138.505796 1101.68547,139.816317 C1107.09855,141.126839 1110.93493,144.319849 1113.19473,149.395441 C1116.03942,155.784716 1115.01482,162.000559 1110.12089,168.043156 C1109.28533,169.059118 1108.19111,170.297559 1106.83818,171.758518 C1103.97977,174.819906 1102.21441,177.323058 1101.54206,179.26805 C1100.86971,181.213042 1101.03866,183.320051 1102.04892,185.589139 C1102.79333,187.261099 1103.14917,188.46209 1103.11647,189.192148 C1103.03755,190.300528 1102.28155,191.173735 1100.84844,191.811796 C1098.3405,192.928403 1096.39533,191.934187 1095.01287,188.829119 C1093.73674,185.962902 1093.36328,183.195686 1093.89247,180.527388 C1094.59384,177.281584 1096.74811,173.281625 1100.35536,168.527389 C1103.61784,164.284405 1105.557,161.167254 1106.17291,159.175842 C1106.78882,157.18443 1106.55177,154.964644 1105.46175,152.516417 C1103.99952,149.23221 1101.4796,147.188129 1097.90189,146.384113 C1094.32419,145.580096 1090.32602,146.161757 1085.90727,148.129112 C1081.4288,150.123052 1078.13884,152.857825 1076.03728,156.333511 C1073.93573,159.809197 1073.56289,163.069669 1074.91877,166.115024 Z" id="Combined-Shape"></path>
        </g>
    </g>
</svg>