<?xml version="1.0" encoding="UTF-8"?>
<svg width="572px" height="202px" viewBox="0 0 572 202" version="1.1" xmlns="http://www.w3.org/2000/svg" xmlns:xlink="http://www.w3.org/1999/xlink">
    <!-- Generator: Sketch 48.1 (47250) - http://www.bohemiancoding.com/sketch -->
    <title>gifts</title>
    <desc>Created with Sketch.</desc>
    <defs></defs>
    <g id="Home" stroke="none" stroke-width="1" fill="none" fill-rule="evenodd" transform="translate(-514.000000, -4346.000000)">
        <g id="sponsors" transform="translate(0.000000, 3270.000000)">
            <g id="gifts" transform="translate(514.000000, 1076.000000)">
                <path d="M82.158,124.2979 C82.158,121.2189 78.47,118.6209 73.415,117.7859 C76.399,113.6219 77.171,109.1769 74.994,106.9989 C72.816,104.8209 68.37,105.5939 64.206,108.5779 C63.371,103.5229 60.774,99.834 57.694,99.834 C54.615,99.834 52.017,103.5229 51.183,108.5779 C47.018,105.5939 42.573,104.8209 40.395,106.9989 C38.217,109.1769 38.99,113.6219 41.974,117.7859 C36.919,118.6209 33.23,121.2189 33.23,124.2979 C33.23,127.3769 36.919,129.9749 41.974,130.8089 C38.99,134.9739 38.217,139.4199 40.395,141.5969 C42.573,143.7739 47.018,143.0019 51.183,140.0179 C52.017,145.0729 54.615,148.7629 57.694,148.7629 C60.774,148.7629 63.371,145.0729 64.206,140.0179 C68.37,143.0019 72.816,143.7739 74.994,141.5969 C77.171,139.4199 76.399,134.9739 73.415,130.8089 C78.47,129.9749 82.158,127.3769 82.158,124.2979" id="Fill-28" fill="#F89712"></path>
                <polygon id="Fill-29" fill="#815384" points="0.699 162.987 114.69 162.987 114.69 129.667 0.699 129.667"></polygon>
                <polygon id="Fill-30" fill="#693267" points="7.363 201.449 108.026 201.449 108.026 162.987 7.363 162.987"></polygon>
                <polygon id="Fill-31" fill="#522C62" points="7.363 179.647 108.026 179.647 108.026 162.987 7.363 162.987"></polygon>
                <polygon id="Fill-32" fill="#FCB316" points="43.847 201.449 71.542 201.449 71.542 129.668 43.847 129.668"></polygon>
                <polygon id="Fill-33" fill="#693267" points="71.542 201.449 83.716 201.449 83.716 129.668 71.542 129.668"></polygon>
                <polygon id="Fill-34" fill="#522C62" points="71.542 201.449 83.716 201.449 83.716 162.987 71.542 162.987"></polygon>
                <polygon id="Fill-35" fill="#3F2054" points="71.542 179.647 83.716 179.647 83.716 162.987 71.542 162.987"></polygon>
                <path d="M239.491,42.968 C234.776,48.21 227.084,50.906 219.644,53.512 C218.498,53.914 217.361,54.312 216.242,54.716 C211.187,56.542 206.108,58.13 201.065,59.463 C201.295,58.964 201.524,58.464 201.754,57.964 C206.244,48.169 210.485,38.918 217.084,31.464 C220.618,27.471 226.118,23.967 231.325,22.889 C233.593,22.419 235.806,22.409 237.776,23.021 C240.731,23.937 242.548,25.766 243.332,28.613 C244.564,33.088 242.949,39.125 239.491,42.968 M161.598,54.716 C160.48,54.312 159.343,53.914 158.197,53.512 C150.757,50.906 143.065,48.21 138.35,42.968 C134.893,39.125 133.277,33.088 134.509,28.613 C135.293,25.766 137.111,23.937 140.065,23.021 C142.035,22.409 144.248,22.419 146.516,22.889 C151.723,23.967 157.223,27.471 160.757,31.464 C167.356,38.918 171.598,48.169 176.087,57.964 C176.317,58.464 176.546,58.964 176.775,59.463 C171.733,58.13 166.654,56.542 161.598,54.716 M255.733,25.2 C253.777,18.096 248.754,12.96 241.587,10.736 C229.01,6.833 215.076,14.326 207.452,22.939 C201.901,29.211 197.857,36.32 194.31,43.553 C194.159,43.542 194.009,43.53 193.855,43.53 L183.52,43.53 C179.975,36.305 175.934,29.204 170.389,22.939 C162.765,14.326 148.831,6.833 136.254,10.736 C129.087,12.96 124.064,18.096 122.108,25.2 C119.72,33.876 122.404,44.474 128.787,51.57 C135.705,59.26 145.395,62.655 153.944,65.651 C155.051,66.038 156.149,66.423 157.229,66.813 C165.501,69.8 173.846,72.198 182.033,73.937 L184.452,62.554 L188.921,60.416 L193.389,62.554 L195.807,73.937 C203.995,72.198 212.34,69.8 220.612,66.813 C221.692,66.423 222.79,66.038 223.897,65.651 C232.446,62.655 242.136,59.26 249.054,51.57 C255.437,44.474 258.121,33.876 255.733,25.2" id="Fill-36" fill="#DD375A"></path>
                <polygon id="Fill-37" fill="#FCB316" points="97.248 107.126 280.593 107.126 280.593 53.534 97.248 53.534"></polygon>
                <polygon id="Fill-38" fill="#F89712" points="107.967 201.449 269.875 201.449 269.875 107.127 107.967 107.127"></polygon>
                <polygon id="Fill-39" fill="#F47920" points="107.967 133.923 269.875 133.923 269.875 107.127 107.967 107.127"></polygon>
                <polygon id="Fill-40" fill="#F89712" points="210.583 201.449 227.909 201.449 227.909 53.534 210.583 53.534"></polygon>
                <polygon id="Fill-41" fill="#DE4B5E" points="166.649 201.449 211.194 201.449 211.194 53.534 166.649 53.534"></polygon>
                <polygon id="Fill-42" fill="#F47920" points="210.583 201.449 227.909 201.449 227.909 107.126 210.583 107.126"></polygon>
                <polygon id="Fill-43" fill="#F05823" points="210.583 133.922 227.909 133.922 227.909 107.126 210.583 107.126"></polygon>
                <polygon id="Fill-44" fill="#00BBC1" points="269.621 43.273 430.674 43.273 430.674 0.904 269.621 0.904"></polygon>
                <polygon id="Fill-45" fill="#0099AF" points="279.036 106.355 421.258 106.355 421.258 43.273 279.036 43.273"></polygon>
                <polygon id="Fill-46" fill="#0088A7" points="279.036 61.216 421.258 61.216 421.258 43.273 279.036 43.273"></polygon>
                <polygon id="Fill-47" fill="#3FD8D4" points="269.621 10.818 430.674 10.818 430.674 0.904 269.621 0.904"></polygon>
                <polygon id="Fill-48" fill="#3FD8D4" points="269.621 33.401 430.674 33.401 430.674 23.487 269.621 23.487"></polygon>
                <polygon id="Fill-49" fill="#00789E" points="279.692 61.19 421.258 61.19 421.258 51.276 279.692 51.276"></polygon>
                <polygon id="Fill-50" fill="#0088A7" points="279.692 83.772 421.258 83.772 421.258 73.858 279.692 73.858"></polygon>
                <polygon id="Fill-51" fill="#0088A7" points="279.692 106.355 421.258 106.355 421.258 96.441 279.692 96.441"></polygon>
                <polygon id="Fill-52" fill="#724973" points="258.244 153.431 474.847 153.431 474.847 106.355 258.244 106.355"></polygon>
                <polygon id="Fill-53" fill="#623563" points="267.66 201.449 465.432 201.449 465.432 153.431 267.66 153.431"></polygon>
                <polygon id="Fill-54" fill="#5C2B62" points="267.66 176.969 465.432 176.969 465.432 153.431 267.66 153.431"></polygon>
                <path d="M282.516,121.4193 C282.516,124.0193 280.409,126.1273 277.808,126.1273 C275.208,126.1273 273.101,124.0193 273.101,121.4193 C273.101,118.8193 275.208,116.7113 277.808,116.7113 C280.409,116.7113 282.516,118.8193 282.516,121.4193" id="Fill-55" fill="#815384"></path>
                <path d="M319.262,121.4193 C319.262,124.0193 317.154,126.1273 314.554,126.1273 C311.954,126.1273 309.847,124.0193 309.847,121.4193 C309.847,118.8193 311.954,116.7113 314.554,116.7113 C317.154,116.7113 319.262,118.8193 319.262,121.4193" id="Fill-56" fill="#815384"></path>
                <path d="M356.008,121.4193 C356.008,124.0193 353.9,126.1273 351.3,126.1273 C348.7,126.1273 346.593,124.0193 346.593,121.4193 C346.593,118.8193 348.7,116.7113 351.3,116.7113 C353.9,116.7113 356.008,118.8193 356.008,121.4193" id="Fill-57" fill="#815384"></path>
                <path d="M392.755,121.4193 C392.755,124.0193 390.647,126.1273 388.047,126.1273 C385.447,126.1273 383.34,124.0193 383.34,121.4193 C383.34,118.8193 385.447,116.7113 388.047,116.7113 C390.647,116.7113 392.755,118.8193 392.755,121.4193" id="Fill-58" fill="#815384"></path>
                <path d="M429.501,121.4193 C429.501,124.0193 427.393,126.1273 424.793,126.1273 C422.194,126.1273 420.086,124.0193 420.086,121.4193 C420.086,118.8193 422.194,116.7113 424.793,116.7113 C427.393,116.7113 429.501,118.8193 429.501,121.4193" id="Fill-59" fill="#815384"></path>
                <path d="M466.247,121.4193 C466.247,124.0193 464.139,126.1273 461.539,126.1273 C458.94,126.1273 456.832,124.0193 456.832,121.4193 C456.832,118.8193 458.94,116.7113 461.539,116.7113 C464.139,116.7113 466.247,118.8193 466.247,121.4193" id="Fill-60" fill="#815384"></path>
                <path d="M300.889,141.1913 C300.889,143.7913 298.782,145.8993 296.182,145.8993 C293.582,145.8993 291.475,143.7913 291.475,141.1913 C291.475,138.5913 293.582,136.4833 296.182,136.4833 C298.782,136.4833 300.889,138.5913 300.889,141.1913" id="Fill-61" fill="#815384"></path>
                <path d="M337.635,141.1913 C337.635,143.7913 335.527,145.8993 332.927,145.8993 C330.327,145.8993 328.22,143.7913 328.22,141.1913 C328.22,138.5913 330.327,136.4833 332.927,136.4833 C335.527,136.4833 337.635,138.5913 337.635,141.1913" id="Fill-62" fill="#815384"></path>
                <path d="M374.381,141.1913 C374.381,143.7913 372.274,145.8993 369.673,145.8993 C367.073,145.8993 364.966,143.7913 364.966,141.1913 C364.966,138.5913 367.073,136.4833 369.673,136.4833 C372.274,136.4833 374.381,138.5913 374.381,141.1913" id="Fill-63" fill="#815384"></path>
                <path d="M411.128,141.1913 C411.128,143.7913 409.02,145.8993 406.42,145.8993 C403.821,145.8993 401.713,143.7913 401.713,141.1913 C401.713,138.5913 403.821,136.4833 406.42,136.4833 C409.02,136.4833 411.128,138.5913 411.128,141.1913" id="Fill-64" fill="#815384"></path>
                <path d="M447.874,141.1913 C447.874,143.7913 445.766,145.8993 443.166,145.8993 C440.567,145.8993 438.459,143.7913 438.459,141.1913 C438.459,138.5913 440.567,136.4833 443.166,136.4833 C445.766,136.4833 447.874,138.5913 447.874,141.1913" id="Fill-65" fill="#815384"></path>
                <path d="M280.342,168.0248 C280.342,170.6248 278.234,172.7328 275.634,172.7328 C273.034,172.7328 270.927,170.6248 270.927,168.0248 C270.927,165.4248 273.034,163.3168 275.634,163.3168 C278.234,163.3168 280.342,165.4248 280.342,168.0248" id="Fill-66" fill="#623563"></path>
                <path d="M317.088,168.0248 C317.088,170.6248 314.98,172.7328 312.38,172.7328 C309.78,172.7328 307.673,170.6248 307.673,168.0248 C307.673,165.4248 309.78,163.3168 312.38,163.3168 C314.98,163.3168 317.088,165.4248 317.088,168.0248" id="Fill-67" fill="#623563"></path>
                <path d="M353.834,168.0248 C353.834,170.6248 351.726,172.7328 349.126,172.7328 C346.526,172.7328 344.419,170.6248 344.419,168.0248 C344.419,165.4248 346.526,163.3168 349.126,163.3168 C351.726,163.3168 353.834,165.4248 353.834,168.0248" id="Fill-68" fill="#623563"></path>
                <path d="M390.58,168.0248 C390.58,170.6248 388.472,172.7328 385.872,172.7328 C383.273,172.7328 381.165,170.6248 381.165,168.0248 C381.165,165.4248 383.273,163.3168 385.872,163.3168 C388.472,163.3168 390.58,165.4248 390.58,168.0248" id="Fill-69" fill="#623563"></path>
                <path d="M427.326,168.0248 C427.326,170.6248 425.218,172.7328 422.618,172.7328 C420.019,172.7328 417.911,170.6248 417.911,168.0248 C417.911,165.4248 420.019,163.3168 422.618,163.3168 C425.218,163.3168 427.326,165.4248 427.326,168.0248" id="Fill-70" fill="#623563"></path>
                <path d="M464.072,168.0248 C464.072,170.6248 461.964,172.7328 459.364,172.7328 C456.765,172.7328 454.657,170.6248 454.657,168.0248 C454.657,165.4248 456.765,163.3168 459.364,163.3168 C461.964,163.3168 464.072,165.4248 464.072,168.0248" id="Fill-71" fill="#623563"></path>
                <path d="M298.715,187.7968 C298.715,190.3968 296.607,192.5048 294.007,192.5048 C291.407,192.5048 289.3,190.3968 289.3,187.7968 C289.3,185.1968 291.407,183.0888 294.007,183.0888 C296.607,183.0888 298.715,185.1968 298.715,187.7968" id="Fill-72" fill="#724973"></path>
                <path d="M335.461,187.7968 C335.461,190.3968 333.353,192.5048 330.753,192.5048 C328.153,192.5048 326.046,190.3968 326.046,187.7968 C326.046,185.1968 328.153,183.0888 330.753,183.0888 C333.353,183.0888 335.461,185.1968 335.461,187.7968" id="Fill-73" fill="#724973"></path>
                <path d="M372.207,187.7968 C372.207,190.3968 370.099,192.5048 367.499,192.5048 C364.899,192.5048 362.792,190.3968 362.792,187.7968 C362.792,185.1968 364.899,183.0888 367.499,183.0888 C370.099,183.0888 372.207,185.1968 372.207,187.7968" id="Fill-74" fill="#724973"></path>
                <path d="M408.953,187.7968 C408.953,190.3968 406.845,192.5048 404.245,192.5048 C401.646,192.5048 399.538,190.3968 399.538,187.7968 C399.538,185.1968 401.646,183.0888 404.245,183.0888 C406.845,183.0888 408.953,185.1968 408.953,187.7968" id="Fill-75" fill="#724973"></path>
                <path d="M445.699,187.7968 C445.699,190.3968 443.591,192.5048 440.991,192.5048 C438.392,192.5048 436.284,190.3968 436.284,187.7968 C436.284,185.1968 438.392,183.0888 440.991,183.0888 C443.591,183.0888 445.699,185.1968 445.699,187.7968" id="Fill-76" fill="#724973"></path>
                <path d="M545.974,36.484 C543.069,39.714 538.329,41.375 533.744,42.981 C533.038,43.229 532.337,43.474 531.648,43.723 C528.533,44.848 525.403,45.827 522.296,46.648 C522.437,46.341 522.579,46.033 522.72,45.725 C525.487,39.689 528.1,33.989 532.167,29.395 C534.344,26.935 537.734,24.776 540.942,24.111 C542.34,23.822 543.703,23.815 544.917,24.192 C546.738,24.757 547.857,25.884 548.341,27.639 C549.1,30.396 548.105,34.116 545.974,36.484 M497.976,43.723 C497.287,43.474 496.587,43.229 495.88,42.981 C491.296,41.375 486.556,39.714 483.651,36.484 C481.52,34.116 480.525,30.396 481.284,27.639 C481.767,25.884 482.887,24.757 484.707,24.192 C485.921,23.815 487.285,23.822 488.682,24.111 C491.891,24.776 495.28,26.935 497.458,29.395 C501.524,33.989 504.138,39.689 506.904,45.725 C507.046,46.033 507.187,46.341 507.328,46.648 C504.221,45.827 501.092,44.848 497.976,43.723 M555.982,25.535 C554.777,21.158 551.682,17.993 547.266,16.623 C539.515,14.218 530.93,18.835 526.232,24.142 C522.811,28.007 520.319,32.388 518.133,36.845 C518.04,36.838 517.948,36.83 517.853,36.83 L511.485,36.83 C509.3,32.378 506.81,28.002 503.393,24.142 C498.695,18.835 490.109,14.218 482.359,16.623 C477.943,17.993 474.847,21.158 473.642,25.535 C472.171,30.882 473.824,37.412 477.758,41.785 C482.02,46.523 487.992,48.615 493.259,50.461 C493.942,50.7 494.618,50.937 495.284,51.178 C500.381,53.018 505.523,54.495 510.568,55.567 L512.059,48.553 L514.812,47.236 L517.566,48.553 L519.056,55.567 C524.101,54.495 529.244,53.018 534.341,51.178 C535.006,50.937 535.683,50.7 536.365,50.461 C541.633,48.615 547.604,46.523 551.867,41.785 C555.8,37.412 557.454,30.882 555.982,25.535" id="Fill-77" fill="#F89712"></path>
                <polygon id="Fill-78" fill="#DE4B5E" points="458.323 76.019 571.301 76.019 571.301 42.995 458.323 42.995"></polygon>
                <polygon id="Fill-79" fill="#CE3457" points="464.928 201.449 564.697 201.449 564.697 76.019 464.928 76.019"></polygon>
                <polygon id="Fill-80" fill="#BD1D50" points="464.928 92.531 564.697 92.531 564.697 76.019 464.928 76.019"></polygon>
                <polygon id="Fill-81" fill="#FCB316" points="501.088 201.449 528.537 201.449 528.537 42.995 501.088 42.995"></polygon>
                <polygon id="Fill-82" fill="#CE3457" points="528.537 201.449 541.009 201.449 541.009 42.995 528.537 42.995"></polygon>
                <polygon id="Fill-83" fill="#BD1D50" points="528.537 201.449 541.009 201.449 541.009 76.019 528.537 76.019"></polygon>
                <polygon id="Fill-84" fill="#841943" points="528.537 92.531 541.009 92.531 541.009 76.019 528.537 76.019"></polygon>
            </g>
        </g>
    </g>
</svg>