<?xml version="1.0" encoding="UTF-8"?>
<svg width="308px" height="330px" viewBox="0 0 308 330" version="1.1" xmlns="http://www.w3.org/2000/svg" xmlns:xlink="http://www.w3.org/1999/xlink">
    <!-- Generator: Sketch 48.1 (47250) - http://www.bohemiancoding.com/sketch -->
    <title>tech goat</title>
    <desc>Created with Sketch.</desc>
    <defs></defs>
    <g id="Home" stroke="none" stroke-width="1" fill="none" fill-rule="evenodd" transform="translate(-288.000000, -362.000000)">
        <g id="banner" transform="translate(0.000000, 60.000000)">
            <g id="main" transform="translate(277.000000, 129.000000)">
                <g id="tech-goat" transform="translate(11.000000, 173.000000)">
                    <g id="goat" transform="translate(0.000000, 0.666667)" fill-rule="nonzero">
                        <path d="M73,145.32 C73,145.32 72.7,140.373333 79,131.973333 C79,131.973333 77,122.92 82.3,117.973333 C82.3,117.973333 78.3,107.706667 84.3,105.56 C90.3,103.413333 88.6,103.413333 88.6,103.413333 C88.6,103.413333 94,84.28 94,83.0666667 C94,83.0666667 88.7,86.52 83.5,93.9866667 C83.5,93.9866667 77.7,106.12 81,88.6666667 C81,88.6666667 90.3,69.0666667 94,67.8533333 C94,67.8533333 94.3,64.7733333 86.3,67.8533333 C78.3,70.9333333 63,81.8533333 62,84.28 C61,86.7066667 79.7,50.68 87.7,44.8 C95.7,38.92 120.4,28 120.4,28 C120.4,28 146.1,2.14666667 148.4,0 C148.4,0 144.7,20.5333333 141.4,24.2666667 C138.1,28 140.1,26.1333333 140.1,26.1333333 C140.1,26.1333333 152.8,16.52 169.1,22.68 C169.1,22.68 204.4,15.2133333 192.4,22.4 L177.7,27.3466667 C177.7,27.3466667 195.4,43.2133333 199.7,50.4 C204,57.5866667 210.7,69.0666667 210,74.9466667 C209.3,80.8266667 207.7,93.3333333 194.3,101.36 C194.3,101.36 186.6,108.173333 197,118.16 C197,118.16 202.7,131.226667 198,127.213333 C198,127.213333 191.3,139.066667 188,141.213333 C184.7,143.36 177.7,127.493333 177,121.333333 C176.3,115.08 169.7,111.346667 179,99.8666667 C179,99.8666667 171.7,92.68 168.3,94.2666667 C165,95.8533333 165.3,99.2133333 166.6,100.8 C167.9,102.386667 168.3,106.68 171.3,109.853333 C174.3,113.026667 194.3,149.053333 194.3,149.053333 L307.6,95.5733333 L266.3,201.04 L263.5,227.453333 C261.8,229.32 262.9,279.16 271.6,286.626667 C271.6,286.626667 182.6,330.213333 167.9,328.346667 C167.9,328.346667 81.2,300.066667 49.2,273.933333 C49.2,273.933333 48.2,257.413333 55.9,237.813333 C55.9,237.813333 56.4,215.413333 55.6,212.053333 L46.6,196.746667 L0,127.586667 L73,145.32 Z" id="Shape" fill="#384C5C"></path>
                        <path d="M80.7,133.28 C80.7,133.28 73.6,140.466667 75.3,145.133333 C75.3,145.133333 156,163.706667 157.1,164.173333 L192.9,147.746667 L178.8,129.733333 C178.8,129.733333 159.7,150.08 125.7,146.906667 C125.7,146.906667 102.2,147.653333 80.7,133.28 Z" id="Shape" fill="#FCF8C4"></path>
                        <path d="M171.8,23.8 L176.6,26.4133333 C176.6,26.4133333 194.9,20.16 191.6,20.5333333 C188.3,20.8133333 171.8,23.8 171.8,23.8 Z" id="Shape" fill="#7A888C"></path>
                        <path d="M0,127.586667 L156.7,165.573333 L307.7,95.5733333 C307.7,95.5733333 267.9,197.12 267.1,199.08 C266.3,201.04 257.7,274.12 271.7,286.626667 C271.7,286.626667 183,328.72 169.4,328.346667 C169.4,328.346667 69.1,297.173333 49.4,273.84 C49.4,273.84 49.1,250.506667 56.1,237.72 C56.1,237.72 59.4,214.106667 53.1,205.333333 C46.7,196.653333 0,127.586667 0,127.586667 Z" id="Shape" fill="#9DA3A2"></path>
                        <path d="M0,127.586667 L156.7,165.573333 C156.7,165.573333 184.7,242.2 169.4,328.346667 C169.4,328.346667 53.4,286.253333 47.7,272.253333 C47.7,272.253333 58.4,223.16 55.7,211.96 L0,127.586667 Z M171.8,170.146667 L177.3,191.893333 C177.3,191.893333 269.8,148.96 277.3,150.36 L286.3,122.36 L171.8,170.146667 Z M181.8,204.12 L269.8,167.72 C269.8,167.72 250.3,214.386667 249.8,221.386667 C249.3,228.386667 185.8,247.52 185.8,247.52 L181.8,204.12 Z M186.3,261.52 L216.3,251.72 L216.3,297.453333 L186.3,310.986667 L186.3,261.52 Z M225.8,247.52 L251.3,239.586667 L251.3,281.306667 L231.3,291.853333 L225.8,247.52 Z" id="Shape" fill="#7A888C"></path>
                        <path d="M22.788925,144.307248 L91.5270603,163.203172 C91.5270603,163.203172 113.520053,212.295773 110.520053,230.495773 C107.520053,248.695773 101.8,286.386667 101.8,286.386667 L62.2420669,269.737628 C62.2420669,269.737628 72.4754502,220.649422 66.9754502,209.169422 C63.3087835,201.516089 48.5799418,179.895364 22.788925,144.307248 Z M105,164.64 L144.3,173.32 C144.3,173.32 160.8,228.853333 158.3,249.386667 C155.8,269.92 147.3,304.453333 143.8,304.92 C140.3,305.386667 113.3,289.986667 113.3,289.986667 C113.3,289.986667 125.3,240.986667 121.3,221.386667 C117.3,201.786667 105,164.64 105,164.64 Z" id="Shape" fill="#6C767C"></path>
                        <path d="M90.5,104.72 C90.5,104.72 102.5,111.253333 108.3,110.6 C108.3,110.6 109,113.213333 110.5,114.053333 C112,114.8 112.3,110.04 113.8,110.04 C115.3,110.04 116,116.386667 116.6,116.76 C117.3,117.04 119.1,110.04 119.8,110.786667 C120.5,111.533333 121.5,113.68 121.5,113.68 C121.5,113.68 150.2,116.48 160.3,110.786667 C160.3,110.786667 164,111.906667 164.5,111.813333 C165,111.626667 163.8,108.733333 163.7,107.893333 C163.5,107.146667 156.9,99.2133333 161.5,95.5733333 C161.5,95.5733333 135.5,96.04 118.3,83.2533333 L116.1,81.1066667 L117.3,83.6266667 L114.6,82.9733333 L115.8,84.56 L112.3,83.3466667 C112.3,83.3466667 109.6,79.6133333 111.3,79.8933333 C113,80.1733333 114,82.04 114,82.04 C114,82.04 112.2,75.6933333 114,76.44 C115.8,77.1866667 114.7,77.6533333 114.7,77.6533333 C114.7,77.6533333 114.2,73.8266667 116.9,76.3466667 C119.6,78.8666667 130.4,90.72 147.7,90.9066667 C147.7,90.9066667 177.5,90.72 184,100.24 C184,100.24 190.1,104.626667 186.7,103.88 C184.2,103.32 179.9,100.24 179.9,100.24 C179.9,100.24 173.7,107.893333 175.2,110.32 C176.7,112.746667 180,127.4 181.2,130.106667 C182.4,132.72 191.5,143.92 188.9,130.106667 C188.9,130.106667 190.2,129.173333 191.2,130.106667 C192.2,131.04 197.7,130.293333 191.2,121.52 C191.2,121.52 193.8,120.586667 194.3,121.986667 C194.3,121.986667 195.3,121.333333 195.8,120.866667 C196.3,120.4 185.5,108.733333 190.6,102.666667 C190.6,102.666667 198.5,96.5066667 201.8,93.6133333 C201.8,93.6133333 205.6,87.2666667 205.5,86.6133333 C205.3,85.96 182.2,87.36 182.2,87.36 C182.2,87.36 189.9,83.9066667 196.9,84.0933333 C203.9,84.28 206.7,84.56 206.7,84.56 C206.7,84.56 209.4,71.96 206.7,68.5066667 C206.7,68.5066667 203.7,74.8533333 201.7,75.6933333 C201.7,75.6933333 192.2,67.2933333 192.7,65.4266667 C193.2,63.56 204,62.6266667 204.7,62.6266667 C205.4,62.6266667 198.9,51.6133333 190.5,44.1466667 C182.2,36.68 163.3,16.3333333 146.7,25.2 C130,34.0666667 121.5,38.08 125.9,32.2 C130.2,26.32 135.9,19.4133333 137.6,18.9466667 C139.3,18.48 135.8,21.56 134.8,24.8266667 C134.8,24.8266667 131.5,34.8133333 139.6,21.56 C139.6,21.56 151.8,-1.96 138.6,11.5733333 C125.4,25.1066667 118.8,34.6266667 116.6,36.5866667 C114.4,38.64 106.1,51.9866667 102.1,59.2666667 C98.1,66.5466667 90.8,102.386667 90.6,103.88" id="Shape" fill="#7A888C"></path>
                        <polygon id="Shape" fill="#F49BBB" points="195.8 66.2666667 201.7 73.2666667 206.5 66.2666667 205.7 64.2133333"></polygon>
                        <path d="M134.5,48.3466667 C132.7,49.6533333 128.7,53.9466667 137.7,53.2 C137.7,53.2 150.2,52.4533333 140.9,48.3466667 C140.8,48.3466667 135.9,47.4133333 134.5,48.3466667 Z" id="Shape" stroke="#405877" fill="#FFFFE5"></path>
                        <path d="M118.7,30.52 C118.7,30.52 90,41.72 84,50.68 C78,59.64 67.3,77.4666667 67.3,77.4666667 C67.3,77.4666667 85.6,65.3333333 93,64.2133333 C93,64.2133333 95.8,62.5333333 100.2,57.2133333 C104.6,51.8933333 118.7,30.52 118.7,30.52 Z M95.3,68.7866667 C95.3,68.7866667 79.5,89.9733333 81.3,95.5733333 C81.3,95.5733333 90.7,81.0133333 93,81.5733333 L95.3,68.7866667 Z" id="Shape" fill="#FDDA5A"></path>
                        <path d="M67.9,77.0933333 C67.9,77.0933333 100.7,42.1866667 112.7,38.1733333 L118.7,30.52 C118.7,30.52 86.7,41.16 80,56.9333333 L67.3,77.4666667 L67.9,77.0933333 Z M95.3,68.7866667 C95.3,68.7866667 81.2,82.6933333 81.3,95.5733333 L84.4,91 C84.4,90.9066667 88.7,78.12 95.3,68.7866667 Z M87.7,105.84 C87.7,105.84 82.2,105.933333 84.2,116.853333 C84.2,116.853333 89.6,113.68 87.7,116.853333 C85.8,120.026667 78.9,129.36 81.2,131.133333 C83.5,132.906667 101,139.253333 107.6,140.186667 C114.2,141.12 139.7,141.586667 146.4,141.12 C153.1,140.653333 172.2,137.666667 177.5,128.426667 C177.5,128.426667 176.6,122.92 175.3,120.026667 C174,117.133333 174.1,117.32 171.1,112.466667 C169.9,110.506667 170.1,109.666667 170.1,109.666667 C170.1,109.666667 169.9,110.133333 168.8,107.8 C168.5,107.24 166.1,107.52 166.4,108.92 C166.7,110.32 167.3,110.04 166.7,111.253333 C165.4,113.866667 167.1,118.066667 165.3,116.666667 C163.1,114.986667 160.6,111.906667 160.6,111.906667 C160.6,111.906667 148.6,120.026667 122.2,115.826667 C122.2,115.826667 117.3,124.6 116.2,121.426667 C115.1,118.253333 114.4,113.493333 114,114.053333 C113.6,114.613333 111.1,118.813333 108.9,115.173333 L107.9,112.84 C107.7,112.933333 92.6,109.573333 87.7,105.84 Z" id="Shape" fill="#FCF8C4"></path>
                        <path d="M117.3,83.5333333 C117.3,83.5333333 115.3,86.6133333 116.1,87.36 C116.9,88.1066667 109.3,85.68 113.6,92.2133333 C117.9,98.7466667 116.1,95.2933333 113.1,95.48 C110.1,95.6666667 113.5,98.28 114.8,99.2133333 C116.1,100.146667 108.3,99.2133333 107.3,99.2133333 C106.3,99.2133333 106.8,102.2 110.1,104.066667 C113.4,105.933333 115.1,106.866667 112.1,106.866667 C109.1,106.866667 105,107.053333 105,107.986667 L105,110.32 L108.3,110.506667 C108.3,110.506667 110.1,118.346667 112.9,110.506667 C112.9,110.506667 114.9,107.893333 115.7,113.96 C115.7,113.96 116,120.12 119.7,110.506667 L121.2,112.84 C121.2,112.84 147.2,116.76 159.4,110.786667 L160.2,110.6 C160.2,110.6 164,112 164.4,111.626667 C164.7,111.253333 164.4,108.453333 163.2,107.053333 C162,105.653333 157.3,98.0933333 161.4,95.48 C161.4,95.48 134.5,95.5733333 118.2,83.16 L116,81.0133333 L117.3,83.5333333 Z M181.9,101.453333 C181.9,101.453333 186.3,102.76 185,105.84 C185,105.84 184.2,105.653333 185.1,107.52 C186,109.386667 183.3,108.64 182.5,109.666667 C181.7,110.786667 181.7,119.466667 186,123.48 C186,123.48 186.5,126 184.3,124.413333 C182.1,122.826667 180.3,124.413333 182,126 C183.8,127.586667 190.4,136.64 188.4,136.64 C186.3,136.64 180.4,132.813333 179,123.48 C179,123.48 174.9,110.226667 174.7,109.2 C174.5,108.36 179,100.333333 179.6,100.146667 C179.6,100.146667 180.7,100.8 181.9,101.453333 Z" id="Shape" fill="#616B70"></path>
                        <path d="M122.1,115.92 L121,117.693333 C121,117.693333 149.3,118.066667 153.8,116.76 C158.3,115.453333 154.1,122.733333 151.5,124.6 C148.8,126.466667 134,128.146667 136.3,130.386667 C138.6,132.533333 148.3,132.066667 150.5,132.533333 C152.7,133 151.7,136.546667 151,137.946667 C150.3,139.346667 149.2,140.746667 149.2,140.746667 C149.2,140.746667 174.4,137.386667 177.4,128.333333 C177.4,128.333333 174.6,116.946667 171.8,113.773333 L168.6,107.706667 C168.6,107.706667 165.2,106.866667 166.8,110.413333 C166.8,110.413333 166,112.093333 166,113.68 C166,115.266667 166.5,118.346667 163.7,115.453333 L160.4,111.906667 C160.4,111.906667 147.7,120.026667 122.1,115.92 Z" id="Shape" fill="#E5D0A1"></path>
                        <path d="M178.8,129.733333 C178.8,129.733333 154.5,157.453333 95.9,141.306667 C95.9,141.306667 93.8,142.706667 95.3,143.173333 C96.8,143.64 118.7,150.173333 144.3,149.52 C144.3,149.52 163.6,143.826667 165.6,149.613333 C165.6,149.613333 167.1,155.12 167.8,156.333333 C168.5,157.546667 170,158.386667 170,158.386667 L192.9,147.84 L186.8,140.093333 L178.8,129.733333 Z" id="Shape" fill="#E5D0A1"></path>
                        <path d="M179.1,129.08 C179.1,129.08 185.1,143.92 187.8,141.306667 C190.5,138.693333 192.8,135.52 192.8,135.52 C192.8,135.52 191.2,138.32 188,137.946667 C184.9,137.48 180.8,131.506667 179.1,129.08 Z" id="Shape" fill="#384C5C"></path>
                    </g>
                    <g id="tech" transform="translate(54.000000, 144.000000)" fill="#FFFFFF" font-family="SFProDisplay-Regular, SF Pro Display" font-weight="normal">
                        <text id="Design" transform="translate(169.399842, 16.450159) rotate(-23.000000) translate(-169.399842, -16.450159) " font-size="14">
                            <tspan x="148.399842" y="21.4501593">Design</tspan>
                        </text>
                        <text id="Idea" transform="translate(165.257861, 67.079219) rotate(-23.000000) translate(-165.257861, -67.079219) " font-size="20">
                            <tspan x="147.257861" y="74.0792186">Idea</tspan>
                        </text>
                        <text id="CNN" transform="translate(76.335508, 41.943856) rotate(12.000000) translate(-76.335508, -41.943856) " font-size="12">
                            <tspan x="63.3355075" y="45.9438562">CNN</tspan>
                        </text>
                        <text id="RNN" transform="translate(83.335508, 72.943856) rotate(12.000000) translate(-83.335508, -72.943856) " font-size="12">
                            <tspan x="71.3355075" y="76.9438562">RNN</tspan>
                        </text>
                        <text id="CV" transform="translate(84.455696, 104.800342) rotate(12.000000) translate(-84.455696, -104.800342) " font-size="12">
                            <tspan x="76.4556957" y="108.800342">CV</tspan>
                        </text>
                        <text id="NLP" transform="translate(80.357360, 134.735944) rotate(12.000000) translate(-80.357360, -134.735944) " font-size="12">
                            <tspan x="69.3573599" y="138.735944">NLP</tspan>
                        </text>
                        <text id="os" transform="translate(146.765087, 135.179300) rotate(-15.000000) translate(-146.765087, -135.179300) " font-size="20">
                            <tspan x="136.765087" y="142.1793">os</tspan>
                        </text>
                        <text id="PL" transform="translate(186.765087, 123.179300) rotate(-15.000000) translate(-186.765087, -123.179300) " font-size="12">
                            <tspan x="179.765087" y="127.1793">PL</tspan>
                        </text>
                        <text id="React" transform="translate(15.991291, 29.127330) rotate(15.000000) translate(-15.991291, -29.127330) " font-size="12">
                            <tspan x="1.49129141" y="33.1273304">React</tspan>
                        </text>
                        <text id="HTML" transform="translate(32.440180, 61.515559) rotate(15.000000) translate(-32.440180, -61.515559) " font-size="12">
                            <tspan x="16.4401801" y="65.5155589">HTML</tspan>
                        </text>
                        <text id="SCSS" transform="translate(37.877396, 94.235814) rotate(18.000000) translate(-37.877396, -94.235814) " font-size="12">
                            <tspan x="19.3861048" y="98.2358141">SCSS</tspan>
                        </text>
                        <text id="ES6" transform="translate(29.632160, 124.248178) rotate(23.000000) translate(-29.632160, -124.248178) " font-size="12">
                            <tspan x="19.1321597" y="128.248178">ES6</tspan>
                        </text>
                    </g>
                </g>
            </g>
        </g>
    </g>
</svg>