<?xml version="1.0" encoding="UTF-8"?>
<svg width="38px" height="38px" viewBox="0 0 38 38" version="1.1" xmlns="http://www.w3.org/2000/svg" xmlns:xlink="http://www.w3.org/1999/xlink">
    <!-- Generator: Sketch 48.1 (47250) - http://www.bohemiancoding.com/sketch -->
    <title>icon ( compete )</title>
    <desc>Created with Sketch.</desc>
    <defs></defs>
    <g id="Home" stroke="none" stroke-width="1" fill="none" fill-rule="evenodd" transform="translate(-292.000000, -1633.000000)">
        <g id="learn-hack-compete" transform="translate(0.000000, 900.000000)">
            <g id="compete" transform="translate(289.000000, 718.000000)">
                <g id="icon-(-compete-)" transform="translate(0.000000, 12.000000)">
                    <polygon id="Shape" points="0 0 44 0 44 44 0 44"></polygon>
                    <path d="M32.505,22.0366667 L39.8016667,14.74 C40.5166667,14.025 40.5166667,12.87 39.8016667,12.155 L31.845,4.19833333 C31.13,3.48333333 29.975,3.48333333 29.26,4.19833333 L21.9633333,11.495 L14.6666667,4.19833333 C14.3,3.85 13.8416667,3.66666667 13.365,3.66666667 C12.9066667,3.66666667 12.43,3.85 12.0816667,4.19833333 L4.125,12.155 C3.41,12.87 3.41,14.025 4.125,14.74 L11.4216667,22.0366667 L4.125,29.3333333 C3.41,30.0483333 3.41,31.2033333 4.125,31.9183333 L12.0816667,39.875 C12.7966667,40.59 13.9516667,40.59 14.6666667,39.875 L21.9633333,32.5783333 L29.26,39.875 C29.6266667,40.2416667 30.085,40.4066667 30.5616667,40.4066667 C31.0383333,40.4066667 31.4966667,40.2233333 31.8633333,39.875 L39.82,31.9183333 C40.535,31.2033333 40.535,30.0483333 39.82,29.3333333 L32.505,22.0366667 Z M22,16.5 C23.0083333,16.5 23.8333333,17.325 23.8333333,18.3333333 C23.8333333,19.3416667 23.0083333,20.1666667 22,20.1666667 C20.9916667,20.1666667 20.1666667,19.3416667 20.1666667,18.3333333 C20.1666667,17.325 20.9916667,16.5 22,16.5 Z M13.365,20.0933333 L6.71,13.4566667 L13.365,6.80166667 L20.0016667,13.4383333 L13.365,20.0933333 Z M18.3333333,23.8333333 C17.325,23.8333333 16.5,23.0083333 16.5,22 C16.5,20.9916667 17.325,20.1666667 18.3333333,20.1666667 C19.3416667,20.1666667 20.1666667,20.9916667 20.1666667,22 C20.1666667,23.0083333 19.3416667,23.8333333 18.3333333,23.8333333 Z M22,27.5 C20.9916667,27.5 20.1666667,26.675 20.1666667,25.6666667 C20.1666667,24.6583333 20.9916667,23.8333333 22,23.8333333 C23.0083333,23.8333333 23.8333333,24.6583333 23.8333333,25.6666667 C23.8333333,26.675 23.0083333,27.5 22,27.5 Z M25.6666667,20.1666667 C26.675,20.1666667 27.5,20.9916667 27.5,22 C27.5,23.0083333 26.675,23.8333333 25.6666667,23.8333333 C24.6583333,23.8333333 23.8333333,23.0083333 23.8333333,22 C23.8333333,20.9916667 24.6583333,20.1666667 25.6666667,20.1666667 Z M30.5433333,37.29 L23.8883333,30.6533333 L30.5433333,23.9983333 L37.18,30.635 L30.5433333,37.29 Z" id="Shape" fill="#FFFFFF" fill-rule="nonzero"></path>
                </g>
            </g>
        </g>
    </g>
</svg>