<?xml version="1.0" encoding="UTF-8"?>
<svg width="43px" height="44px" viewBox="0 0 43 44" version="1.1" xmlns="http://www.w3.org/2000/svg" xmlns:xlink="http://www.w3.org/1999/xlink">
    <!-- Generator: Sketch 48.1 (47250) - http://www.bohemiancoding.com/sketch -->
    <title>icon ( hack )</title>
    <desc>Created with Sketch.</desc>
    <defs></defs>
    <g id="Home" stroke="none" stroke-width="1" fill="none" fill-rule="evenodd" transform="translate(-288.000000, -1340.000000)">
        <g id="learn-hack-compete" transform="translate(0.000000, 900.000000)">
            <g id="hack" transform="translate(287.000000, 428.000000)">
                <g id="icon-(-hack-)" transform="translate(0.000000, 12.000000)">
                    <polygon id="Shape" points="0 0 14.6666667 0 14.6666667 14.6666667 0 14.6666667"></polygon>
                    <path d="M38.9074074,20.9814815 L35.8518519,20.9814815 L35.8518519,12.8333333 C35.8518519,10.5925926 34.0185185,8.75925926 31.7777778,8.75925926 L23.6296296,8.75925926 L23.6296296,5.7037037 C23.6296296,2.89259259 21.3481481,0.611111111 18.537037,0.611111111 C15.7259259,0.611111111 13.4444444,2.89259259 13.4444444,5.7037037 L13.4444444,8.75925926 L5.2962963,8.75925926 C3.05555556,8.75925926 1.24259259,10.5925926 1.24259259,12.8333333 L1.24259259,20.5740741 L4.27777778,20.5740741 C7.31296296,20.5740741 9.77777778,23.0388889 9.77777778,26.0740741 C9.77777778,29.1092593 7.31296296,31.5740741 4.27777778,31.5740741 L1.22222222,31.5740741 L1.22222222,39.3148148 C1.22222222,41.5555556 3.05555556,43.3888889 5.2962963,43.3888889 L13.037037,43.3888889 L13.037037,40.3333333 C13.037037,37.2981481 15.5018519,34.8333333 18.537037,34.8333333 C21.5722222,34.8333333 24.037037,37.2981481 24.037037,40.3333333 L24.037037,43.3888889 L31.7777778,43.3888889 C34.0185185,43.3888889 35.8518519,41.5555556 35.8518519,39.3148148 L35.8518519,31.1666667 L38.9074074,31.1666667 C41.7185185,31.1666667 44,28.8851852 44,26.0740741 C44,23.262963 41.7185185,20.9814815 38.9074074,20.9814815 Z" id="Shape" fill="#FFFFFF" fill-rule="nonzero"></path>
                </g>
            </g>
        </g>
    </g>
</svg>