<?xml version="1.0" encoding="UTF-8"?>
<svg width="44px" height="44px" viewBox="0 0 44 44" version="1.1" xmlns="http://www.w3.org/2000/svg" xmlns:xlink="http://www.w3.org/1999/xlink">
    <!-- Generator: Sketch 48.1 (47250) - http://www.bohemiancoding.com/sketch -->
    <title>memory</title>
    <desc>Created with Sketch.</desc>
    <defs></defs>
    <g id="Home" stroke="none" stroke-width="1" fill="none" fill-rule="evenodd" transform="translate(-287.000000, -1012.000000)">
        <g id="learn-hack-compete" transform="translate(0.000000, 900.000000)">
            <g id="learn" transform="translate(287.000000, 100.000000)">
                <g id="memory" transform="translate(0.000000, 12.000000)">
                    <polygon id="Shape" points="0 0 44 0 44 44 0 44"></polygon>
                    <path d="M29.3333333,14.6666667 L14.6666667,14.6666667 L14.6666667,29.3333333 L29.3333333,29.3333333 L29.3333333,14.6666667 Z M24.4444444,24.4444444 L19.5555556,24.4444444 L19.5555556,19.5555556 L24.4444444,19.5555556 L24.4444444,24.4444444 Z M44,19.5555556 L44,14.6666667 L39.1111111,14.6666667 L39.1111111,9.77777778 C39.1111111,7.08888889 36.9111111,4.88888889 34.2222222,4.88888889 L29.3333333,4.88888889 L29.3333333,0 L24.4444444,0 L24.4444444,4.88888889 L19.5555556,4.88888889 L19.5555556,0 L14.6666667,0 L14.6666667,4.88888889 L9.77777778,4.88888889 C7.08888889,4.88888889 4.88888889,7.08888889 4.88888889,9.77777778 L4.88888889,14.6666667 L0,14.6666667 L0,19.5555556 L4.88888889,19.5555556 L4.88888889,24.4444444 L0,24.4444444 L0,29.3333333 L4.88888889,29.3333333 L4.88888889,34.2222222 C4.88888889,36.9111111 7.08888889,39.1111111 9.77777778,39.1111111 L14.6666667,39.1111111 L14.6666667,44 L19.5555556,44 L19.5555556,39.1111111 L24.4444444,39.1111111 L24.4444444,44 L29.3333333,44 L29.3333333,39.1111111 L34.2222222,39.1111111 C36.9111111,39.1111111 39.1111111,36.9111111 39.1111111,34.2222222 L39.1111111,29.3333333 L44,29.3333333 L44,24.4444444 L39.1111111,24.4444444 L39.1111111,19.5555556 L44,19.5555556 Z M34.2222222,34.2222222 L9.77777778,34.2222222 L9.77777778,9.77777778 L34.2222222,9.77777778 L34.2222222,34.2222222 Z" id="Shape" fill="#FFFFFF" fill-rule="nonzero"></path>
                </g>
            </g>
        </g>
    </g>
</svg>