<?xml version="1.0" encoding="UTF-8"?>
<svg width="160px" height="160px" viewBox="0 0 160 160" version="1.1" xmlns="http://www.w3.org/2000/svg" xmlns:xlink="http://www.w3.org/1999/xlink">
    <!-- Generator: Sketch 48.1 (47250) - http://www.bohemiancoding.com/sketch -->
    <title>acm logo</title>
    <desc>Created with Sketch.</desc>
    <defs></defs>
    <g id="Home" stroke="none" stroke-width="1" fill="none" fill-rule="evenodd" transform="translate(-721.000000, -4673.000000)" opacity="0.3">
        <g id="footer" transform="translate(0.000000, 4547.000000)" fill="#FFFFFF" fill-rule="nonzero">
            <g id="acm">
                <path d="M721,206 L801,126 L881,206 L801,286 L721,206 Z M801.445422,255.441797 C828.505373,255.441797 850.441797,233.505373 850.441797,206.445422 C850.441797,179.385471 828.505373,157.449046 801.445422,157.449046 C774.385471,157.449046 752.449046,179.385471 752.449046,206.445422 C752.449046,233.505373 774.385471,255.441797 801.445422,255.441797 Z M801,250.096738 C776.646044,250.096738 756.903262,230.353956 756.903262,206 C756.903262,181.646044 776.646044,161.903262 801,161.903262 C825.353956,161.903262 845.096738,181.646044 845.096738,206 C845.096738,230.353956 825.353956,250.096738 801,250.096738 Z M775.305524,215.249902 L775.305524,217.488355 L781.846871,217.488355 L781.846871,203.11381 C781.835831,200.635921 781.007813,198.790032 779.362815,197.576144 C777.717818,196.362257 775.092999,195.755313 771.488358,195.755313 C770.028192,195.75401 768.570756,195.882579 767.13298,196.139525 C765.659107,196.398451 764.648924,196.615614 764.003069,196.80772 L764.003069,201.952822 L764.557842,201.952822 C765.531284,201.515238 766.536031,201.152272 767.56355,200.867005 C768.429028,200.60019 769.325351,200.448564 770.22977,200.415973 C771.536092,200.340974 772.842042,200.569581 774.046936,201.084168 C774.905327,201.56192 775.404861,202.504264 775.322084,203.48967 L775.322084,203.598252 C773.461803,203.726322 771.703643,203.901724 770.047606,204.124455 C768.598295,204.302183 767.184979,204.705084 765.857831,205.318854 C764.772247,205.815269 763.845876,206.607963 763.183331,207.607422 C762.515674,208.756801 762.193486,210.077111 762.25595,211.407781 C762.198347,213.172375 762.859635,214.883787 764.085871,216.143613 C765.289682,217.39087 766.956382,218.072455 768.681375,218.022911 C769.457263,218.043735 770.232834,217.970829 770.991547,217.805748 C771.577259,217.649175 772.14592,217.433716 772.688985,217.16261 C773.198137,216.921133 773.676362,216.618232 774.113177,216.260547 L775.305524,215.249902 Z M775.610969,212.01277 C775.157686,212.493822 774.63029,212.8808 774.053829,213.155326 C773.528566,213.416546 772.960499,213.555223 772.384894,213.562749 C771.603693,213.619861 770.824965,213.416267 770.149001,212.978186 C769.588271,212.446046 769.303738,211.638791 769.390394,210.82593 C769.36402,210.215506 769.52442,209.613112 769.845558,209.116525 C770.176822,208.662654 770.621155,208.326909 771.123212,208.15111 C771.745206,207.901837 772.390907,207.732449 773.047677,207.64626 L775.610969,207.336265 L775.610969,212.01277 Z M796.416009,218.025418 C797.153609,218.030076 797.89045,217.976931 798.619845,217.866465 C799.225391,217.765336 799.825047,217.631284 800.416178,217.464901 C800.92821,217.323806 801.430949,217.150571 801.921439,216.946214 L803.227108,216.377331 L803.227108,210.747064 L802.395472,210.747064 C802.145981,210.972944 801.879858,211.223921 801.563836,211.499997 C801.217877,211.815346 800.841818,212.095568 800.441127,212.336589 C799.931763,212.623545 799.39013,212.848229 798.827754,213.005863 C798.118683,213.204839 797.384938,213.300626 796.648867,213.290305 C795.184134,213.351513 793.762748,212.782612 792.740178,211.725877 C791.758848,210.682925 791.268182,209.104554 791.268182,206.990764 C791.180413,205.30567 791.667475,203.640969 792.648698,202.272382 C793.597904,201.090246 795.058114,200.444673 796.565704,200.540636 C797.243162,200.531512 797.918329,200.621695 798.569946,200.808346 C799.126934,200.973863 799.664948,201.198204 800.175004,201.477619 C800.612587,201.722155 801.029769,202.001934 801.422458,202.314212 C801.80501,202.620962 802.126576,202.899827 802.387156,203.150804 L803.218792,203.150804 L803.218792,197.495439 C802.114151,196.913867 800.944323,196.467301 799.734237,196.165258 C798.592081,195.895261 797.422947,195.757722 796.249682,195.755327 C794.749503,195.752699 793.256724,195.966822 791.817062,196.391137 C790.457223,196.770977 789.191113,197.432024 788.099649,198.332032 C786.966866,199.284528 786.067594,200.486887 785.47168,201.84572 C784.22829,205.070499 784.201665,208.641652 785.396832,211.884829 C785.950663,213.213312 786.804937,214.393507 787.89174,215.33159 C788.983692,216.270329 790.262481,216.96345 791.642419,217.36451 C793.192537,217.820289 794.801128,218.043 796.416009,218.025418 Z M833.103044,218.000679 L839.746498,218.009247 L839.746498,203.914877 C839.782334,202.651127 839.6321,201.38904 839.300798,200.170658 C839.032643,199.259723 838.580009,198.416192 837.972107,197.694504 C837.436855,197.053618 836.755371,196.556404 835.98748,196.246511 C835.14361,195.911388 834.244132,195.745557 833.338509,195.758134 C832.130654,195.772308 830.947586,196.109105 829.907459,196.734887 C828.60367,197.518436 827.393095,198.452832 826.299812,199.519489 C825.85746,198.350395 825.062476,197.354427 824.029265,196.674911 C822.995767,196.039851 821.80459,195.721569 820.598215,195.758134 C819.473023,195.741531 818.362046,196.015669 817.368992,196.554959 C816.275482,197.173901 815.24941,197.909141 814.307958,198.748369 L814.307958,196.357895 L807.681324,196.357895 L807.681324,218.026383 L814.307958,218.026383 L814.307958,202.672516 C814.799337,202.318524 815.316631,202.003441 815.855294,201.730035 C816.882802,201.241279 818.065561,201.219482 819.109745,201.670059 C819.513375,201.888504 819.826686,202.247245 819.992736,202.681084 C820.205565,203.260299 820.324844,203.870832 820.345932,204.488933 C820.390783,205.231494 820.413208,206.128278 820.413208,207.179287 L820.413208,218.026383 L827.014614,218.026383 L827.014614,202.672516 C827.526041,202.298412 828.0692,201.971533 828.637635,201.695763 C829.108399,201.479658 829.618191,201.365856 830.134514,201.361611 C830.711833,201.330709 831.288142,201.439337 831.816401,201.678627 C832.220031,201.897072 832.533342,202.255814 832.699392,202.689652 C832.911681,203.262746 833.028223,203.86803 833.044178,204.480365 C833.103044,205.208646 833.103044,206.116854 833.103044,207.179287 L833.103044,218.000679 Z" id="acm-logo"></path>
            </g>
        </g>
    </g>
</svg>