<?xml version="1.0" encoding="UTF-8"?>
<svg width="40px" height="33px" viewBox="0 0 40 33" version="1.1" xmlns="http://www.w3.org/2000/svg" xmlns:xlink="http://www.w3.org/1999/xlink">
    <!-- Generator: Sketch 48.1 (47250) - http://www.bohemiancoding.com/sketch -->
    <title>devpost</title>
    <desc>Created with Sketch.</desc>
    <defs></defs>
    <g id="Home" stroke="none" stroke-width="1" fill="none" fill-rule="evenodd" transform="translate(-1115.000000, -649.000000)">
        <g id="banner" transform="translate(0.000000, 60.000000)" fill="#626262" fill-rule="nonzero">
            <g id="main" transform="translate(277.000000, 129.000000)">
                <g id="links" transform="translate(648.000000, 457.400000)">
                    <g id="Devpost" transform="translate(190.000000, 2.800000)">
                        <path d="M29.9964324,0 L40,16.0533333 L29.9964324,32.1066667 L10.0035676,32.1066667 L0,16.0533333 L10.0035676,0 L29.9964324,0 Z M19.1103679,10.4533333 C23.7016722,10.4533333 25.6,12.4311704 25.6,16.4266667 C25.6,19.9973926 23.5103679,22.4 18.9632107,22.4 L16.8,22.4 L16.8,10.4533333 L19.1103679,10.4533333 Z M18.9368534,25.8710744 C24.3453443,25.8710744 29.6967535,22.9257521 29.6967535,16.0533333 C29.6967535,8.90230303 25.244381,6.23559229 19.2365323,6.23559229 L12.7006778,6.23559229 L12.7006778,25.8710744 L18.9368534,25.8710744 Z" id="devpost"></path>
                    </g>
                </g>
            </g>
        </g>
    </g>
</svg>