<?xml version="1.0" encoding="UTF-8"?>
<svg width="65px" height="41px" viewBox="0 0 65 41" version="1.1" xmlns="http://www.w3.org/2000/svg" xmlns:xlink="http://www.w3.org/1999/xlink">
    <!-- Generator: Sketch 48.1 (47250) - http://www.bohemiancoding.com/sketch -->
    <title>logo</title>
    <desc>Created with Sketch.</desc>
    <defs></defs>
    <g id="Home" stroke="none" stroke-width="1" fill="none" fill-rule="evenodd" transform="translate(-290.000000, -10.000000)">
        <g id="header" fill="#FFFFFF">
            <path d="M290.374187,10.3740835 L354.906647,10.3740835 L354.906647,50.6259683 L290.374187,50.6259683 L290.374187,10.3740835 Z M304.006302,15.8316645 L304.006302,21.3172043 L298.783768,21.3172043 L298.783768,15.8316645 L295.853137,15.8316645 L295.853137,28.9631449 L298.783768,28.9631449 L298.783768,23.7969688 L304.006302,23.7969688 L304.006302,28.9631449 L306.936933,28.9631449 L306.936933,15.8316645 L304.006302,15.8316645 Z M319.523617,28.9631449 L322.642109,28.9631449 L316.968708,15.8316645 L314.132008,15.8316645 L308.458607,28.9631449 L311.577099,28.9631449 L312.798195,26.1264446 L318.302521,26.1264446 L319.523617,28.9631449 Z M315.559751,19.7391723 L317.194141,23.5527496 L313.906574,23.5527496 L315.559751,19.7391723 Z M330.194119,26.3706638 C329.142097,26.3706638 328.246627,26.001204 327.507707,25.2622842 C326.768787,24.5233645 326.399328,23.5433565 326.399328,22.3222604 C326.399328,21.1011642 326.790705,20.1305493 327.573458,19.4104156 C328.356212,18.690282 329.298648,18.3302152 330.400766,18.3302152 C331.778413,18.3302152 332.930627,18.9063221 333.857407,20.0585359 L335.679658,17.9920655 C334.226867,16.3514132 332.423402,15.531087 330.269263,15.531087 C328.340557,15.531087 326.709298,16.1823383 325.375485,17.4848409 C324.041673,18.7873435 323.374766,20.4123407 323.374766,22.3598325 C323.374766,24.3073244 324.029149,25.9197975 325.337913,27.197252 C326.646678,28.4747065 328.312378,29.1134337 330.335014,29.1134337 C332.357651,29.1134337 334.114151,28.2743214 335.604514,26.596097 L333.725905,24.6611292 C332.811648,25.8008189 331.634386,26.3706638 330.194119,26.3706638 Z M337.915204,15.8316645 L337.915204,28.9631449 L340.845835,28.9631449 L340.845835,25.2434981 L342.160861,23.7781827 L346.012011,28.9631449 L349.43108,28.9631449 C348.829925,28.1240327 347.92193,26.8497092 346.707096,25.1401746 C345.492262,23.43064 344.659412,22.2627711 344.208546,21.6365679 L349.43108,15.8316645 L345.805364,15.8316645 L340.845835,21.2232738 L340.845835,15.8316645 L337.915204,15.8316645 Z M306.859323,41.7261202 C306.535222,41.7261202 306.373576,41.456171 306.373576,40.9162726 L306.373576,35.7532925 L304.349765,35.7532925 L304.349765,36.4168502 L304.139625,36.2059019 C304.010308,36.0660779 303.794511,35.923021 303.492232,35.7775394 C303.189954,35.6312496 302.871511,35.5585088 302.536903,35.5585088 C301.544395,35.5585088 300.743438,35.923021 300.133224,36.6512372 C299.523818,37.3794534 299.219115,38.2757817 299.219115,39.3386056 C299.219115,40.4014294 299.556147,41.2783601 300.230212,41.9685895 C300.905085,42.6596271 301.697959,43.0047417 302.609644,43.0047417 C303.522137,43.0047417 304.2746,42.6216402 304.867842,41.8554371 C304.997967,42.2328811 305.232354,42.5464747 305.572619,42.7946017 C305.912076,43.0427286 306.287095,43.1663879 306.696868,43.1663879 C307.495401,43.1663879 308.140369,42.8075333 308.631774,42.0898241 C309.12237,41.3729232 309.368072,40.4200187 309.368072,39.2335355 C309.368072,37.398851 308.763515,35.8664448 307.55521,34.6363171 C306.346904,33.4061894 304.84117,32.7903174 303.038815,32.7903174 C301.236459,32.7903174 299.695971,33.4304364 298.417349,34.7090579 C297.138728,35.9876795 296.499417,37.5305926 296.499417,39.3386056 C296.499417,41.1458102 297.106398,42.6515447 298.320362,43.8541926 C299.534325,45.0576487 301.042484,45.6597808 302.844839,45.6597808 C303.438081,45.6597808 304.069309,45.5433956 304.738525,45.3114332 C305.40774,45.0794709 305.958145,44.7747678 306.389741,44.3965156 L305.726183,43.2472111 C304.895321,44.0457434 303.934335,44.4450095 302.844839,44.4450095 C301.452257,44.4450095 300.284363,43.9600709 299.340349,42.9885771 C298.396335,42.0170834 297.92352,40.8006956 297.92352,39.3386056 C297.92352,37.8765155 298.425432,36.6213327 299.429255,35.5746734 C300.433078,34.5280142 301.668055,34.0050887 303.135802,34.0050887 C304.60355,34.0050887 305.774677,34.5037672 306.648375,35.5019326 C307.522881,36.500098 307.960134,37.7601303 307.960134,39.2820294 C307.960134,39.9827657 307.849406,40.5655003 307.627951,41.0302332 C307.406495,41.4941578 307.150286,41.7261202 306.859323,41.7261202 Z M303.937568,37.9379411 C304.223681,38.294371 304.36593,38.742131 304.36593,39.2820294 C304.36593,39.8211195 304.228531,40.2769618 303.953732,40.6495564 C303.678125,41.0221509 303.303106,41.208044 302.828675,41.208044 C302.353435,41.208044 301.978415,41.0140686 301.703617,40.6253094 C301.42801,40.2365503 301.290611,39.780708 301.290611,39.2577824 C301.290611,38.7340487 301.42801,38.294371 301.703617,37.9379411 C301.978415,37.5823194 302.348585,37.4037004 302.81251,37.4037004 C303.276435,37.4037004 303.651454,37.5823194 303.937568,37.9379411 Z M317.977381,40.0793669 L315.384915,32.5273698 L312.210052,32.5273698 L316.793862,45.6588489 L318.973053,45.6588489 L321.828527,36.5288086 L324.702803,45.6588489 L326.881994,45.6588489 L331.465804,32.5273698 L328.290941,32.5273698 L325.679672,40.0793669 L323.36899,32.5273698 L320.306866,32.5273698 L317.977381,40.0793669 Z M342.070446,33.7014101 C341.149934,32.9186561 339.681471,32.5272921 337.665108,32.5272921 L333.024941,32.5272921 L333.024941,45.6587712 L335.955574,45.6587712 L335.955574,41.9954734 L337.702688,41.9954734 C339.643917,41.9954734 341.087309,41.6197525 342.032866,40.8683108 C342.978449,40.1168691 343.451214,38.9302158 343.451214,37.3083511 C343.451214,35.6864863 342.990958,34.484164 342.070446,33.7014101 Z M339.919433,38.8675914 C339.568757,39.2620892 338.904984,39.459364 337.928115,39.459364 L335.955574,39.459364 L335.955574,35.0446245 L337.627528,35.0446245 C338.591888,35.0446245 339.302616,35.2042935 339.759764,35.5236576 C340.216886,35.8430216 340.445447,36.3815712 340.445447,37.1392806 C340.445447,37.896964 340.270109,38.4730935 339.919433,38.8675914 Z M345.743223,32.5273957 L345.743223,45.6588748 L348.673856,45.6588748 L348.673856,32.5273957 L345.743223,32.5273957 Z" id="logo"></path>
        </g>
    </g>
</svg>