<?xml version="1.0" encoding="UTF-8"?>
<svg width="59px" height="97px" viewBox="0 0 59 97" version="1.1" xmlns="http://www.w3.org/2000/svg" xmlns:xlink="http://www.w3.org/1999/xlink">
    <!-- Generator: Sketch 48.1 (47250) - http://www.bohemiancoding.com/sketch -->
    <title>mlh</title>
    <desc>Created with Sketch.</desc>
    <defs></defs>
    <g id="Home" stroke="none" stroke-width="1" fill="none" fill-rule="evenodd" transform="translate(-1501.000000, -60.000000)">
        <g id="banner" transform="translate(0.000000, 60.000000)">
            <g id="mlh" transform="translate(1501.000000, 0.000000)">
                <polygon id="bg" fill="#FFFFFF" points="3.22781579 0 55.2024546 0 55.2024546 32.1447338 58 32.1447338 58 48.8872786 55.2024546 49.6032886 55.2024546 86.8 3.22781579 86.8 3.22781579 49.5283167 1 48.1683627 1 33.0792663 3.22781579 31.3915285"></polygon>
                <path d="M40.7895674,16.6436469 C40.8053426,16.5956378 40.8342623,16.5516648 40.8796438,16.5178988 C40.9547074,16.4620479 41.0447837,16.4341225 41.1498728,16.4341225 L44.978117,16.4341225 C45.0832061,16.4341225 45.1732824,16.4620479 45.2333333,16.5178988 C45.3083969,16.5737497 45.3384224,16.6435633 45.3384224,16.7413023 L45.3384224,20.8044541 C45.3384224,20.9021932 45.3684478,20.9720068 45.4435115,21.0418204 C45.5185751,21.111634 45.6086514,21.1395594 45.7137405,21.1395594 L48.446056,21.1395594 C48.551145,21.1395594 48.6412214,21.111634 48.716285,21.0418204 C48.7913486,20.9720068 48.821374,20.9021932 48.821374,20.8044541 L48.821374,9.14558218 C48.821374,9.04784314 48.7913486,8.97802953 48.716285,8.90821593 C48.6412214,8.83840232 48.551145,8.81047688 48.446056,8.81047688 L45.7137405,8.81047688 C45.6086514,8.81047688 45.5185751,8.83840232 45.4435115,8.90821593 C45.3684478,8.97802953 45.3384224,9.04784314 45.3384224,9.14558218 L45.3384224,13.0830695 C45.3384224,13.1808085 45.2933842,13.2506221 45.2333333,13.3204357 C45.1732824,13.3902493 45.0832061,13.4181748 44.978117,13.4181748 L41.1498728,13.4181748 C40.9465331,13.4181748 40.8289622,13.347268 40.7895674,13.2054545 L40.7895674,13.0830695 L40.7895674,9.14558218 C40.7895674,8.92217865 40.6694656,8.81047688 40.4142494,8.81047688 L37.6969466,8.81047688 C37.4417303,8.81047688 37.3216285,8.92217865 37.3216285,9.14558218 L37.3216285,20.8044541 C37.3216285,21.0278577 37.4417303,21.1395594 37.6969466,21.1395594 L40.3992366,21.1395594 C40.5340174,21.1395594 40.6311155,21.1084065 40.6927422,21.0461007 C40.7579677,20.9902872 40.7895674,20.9050841 40.7895674,20.7904914 L40.7895674,16.6436469 Z M18.4806616,11.7147228 L20.5374046,11.7147228 L20.5374046,20.762566 C20.5374046,20.860305 20.56743,20.9440813 20.6274809,20.9999322 C20.6875318,21.0697458 20.7625954,21.0976713 20.8676845,21.0976713 L23.4348601,21.0976713 C23.5399491,21.0976713 23.6150127,21.0557831 23.6900763,20.9999322 C23.7651399,20.9301186 23.7951654,20.860305 23.7951654,20.762566 L23.7951654,10.807146 C23.7951654,10.5278916 23.7351145,10.2765626 23.6150127,10.0252336 C23.4949109,9.78786734 23.3447837,9.57842653 23.1496183,9.39691116 C22.9694656,9.21539579 22.7442748,9.07576858 22.4740458,8.96406681 C22.2038168,8.85236504 21.9335878,8.81047688 21.6333333,8.81047688 L10.5239186,8.81047688 C10.2987277,8.81047688 10.178626,8.90821593 10.178626,9.13161946 L10.178626,20.762566 C10.178626,20.9720068 10.283715,21.0837085 10.5239186,21.0837085 L13.0760814,21.0837085 C13.3012723,21.0837085 13.421374,20.9859695 13.421374,20.762566 L13.421374,11.7147228 L15.4631043,11.7147228 L15.4631043,20.762566 C15.4631043,20.860305 15.4931298,20.9440813 15.5681934,20.9999322 C15.643257,21.0697458 15.7183206,21.0976713 15.8234097,21.0976713 L18.1503817,21.0976713 C18.2554707,21.0976713 18.3305344,21.0557831 18.3905852,20.9999322 C18.4506361,20.9301186 18.4806616,20.860305 18.4806616,20.762566 L18.4806616,11.7147228 Z M0.0300254453,30.8071795 L0,30.7877996 L0.0300254453,30.7739903 L0.0300254453,30.7319487 L0.0898144861,30.7464921 L2.73231552,29.5311547 L2.73231552,0 L56.0124682,0 L56.0124682,29.2937884 L59,30.6760978 L58.9549618,30.7052926 L58.9549618,49.4699201 L57.3486005,49.9586153 C57.239578,49.9924145 56.5262078,50.2086643 55.2768448,50.5170539 L55.2768448,86.9179375 C55.2768448,87.2809683 55.0216285,87.7138126 54.5262087,87.8813653 L30.6559796,96.0076688 C30.1605598,96.1752215 29.3949109,96.1752215 28.8994911,96.0076688 L4.36870229,87.8813653 C3.87328244,87.7138126 3.3178117,87.2809683 3.3178117,86.9179375 L3.3178117,50.3660122 C2.80130724,50.2476507 2.28585423,50.1258119 1.77150127,50.0005035 L0.0300254453,49.5816219 L0.0300254453,30.8071795 Z M44.9480916,68.7524377 L45.2783715,68.3195933 L46.0290076,67.384091 C46.1491094,67.2584265 46.2391858,67.0769112 46.3292621,66.8674703 C46.4043257,66.6580295 46.4493639,66.4625514 46.4493639,66.2810361 L46.4493639,61.9246672 C46.4493639,61.3940838 46.3292621,60.8774631 46.1040712,60.4027306 C45.8788804,59.9140353 45.578626,59.5091164 45.2033079,59.1600484 C44.8279898,58.8109804 44.3776081,58.531726 43.8671756,58.3222852 C43.356743,58.1128443 42.8012723,58.0011426 42.2307888,58.0011426 L31.3465649,58.0011426 C30.7760814,58.0011426 30.2206107,58.1128443 29.7101781,58.3222852 C29.1997455,58.531726 28.7493639,58.8109804 28.3590331,59.1600484 C27.9687023,59.5091164 27.6684478,59.9279981 27.4582697,60.4027306 C27.2330789,60.8774631 27.1279898,61.3940838 27.1279898,61.9246672 L27.1279898,66.3089615 C27.1279898,66.4904769 27.1580153,66.685955 27.2330789,66.8953958 C27.3081425,67.1048366 27.3982188,67.2723893 27.5183206,67.4120165 L28.3139949,68.3475188 L28.6743003,68.7803631 C28.794402,68.8920649 28.9145038,69.0316921 29.0346056,69.1992447 C29.1547074,69.3667974 29.2147583,69.53435 29.1847328,69.7158654 C29.1847328,69.8834181 29.1246819,70.0649334 29.0045802,70.2464488 C28.8844784,70.4279642 28.7643766,70.5815541 28.6442748,70.7211813 L28.3139949,71.0562866 L27.983715,71.4193174 L27.5483461,71.8940499 C27.4282443,72.0197144 27.3381679,72.2012297 27.2480916,72.4106705 C27.173028,72.6201114 27.1279898,72.8155894 27.1279898,72.9971048 L27.1279898,77.5489518 C27.1279898,78.0655725 27.2180662,78.540305 27.4132316,78.9871121 C27.6083969,79.4339191 27.878626,79.8248753 28.2239186,80.1739434 C28.5692112,80.5230114 28.9745547,80.8022658 29.4249364,81.0256693 C29.8753181,81.2490729 30.3707379,81.3887001 30.8961832,81.4305882 C31.0012723,81.444551 31.1363868,81.4585137 31.3315522,81.4585137 L42.2007634,81.4585137 C42.3208651,81.4585137 42.4409669,81.4585137 42.5310433,81.444551 C42.6361323,81.4305882 42.7412214,81.4166255 42.8613232,81.3887001 L43.0414758,81.3887001 C43.2966921,81.3328492 43.5519084,81.2630356 43.7770992,81.1652965 C44.0022901,81.0675575 44.2124682,80.9558557 44.4076336,80.844154 L44.5577608,80.7743404 C44.5877863,80.7603776 44.602799,80.7464149 44.6178117,80.7464149 C44.6328244,80.7464149 44.6478372,80.7464149 44.6778626,80.7184895 C44.7229008,80.6766013 44.7529262,80.6486759 44.7829517,80.6347131 C44.7979644,80.6207504 44.8430025,80.592825 44.8880407,80.5509368 C44.9480916,80.5090487 44.9931298,80.4811232 45.0381679,80.4531978 L45.1882952,80.3135706 C45.2633588,80.243757 45.3083969,80.1879061 45.3384224,80.1460179 C45.413486,80.1180925 45.4585242,80.0762043 45.4885496,80.0063907 C45.5486005,79.9645025 45.5936387,79.8946889 45.6386768,79.8109126 C45.6687023,79.7969499 45.683715,79.7829872 45.6987277,79.7829872 C45.7137405,79.7829872 45.7287532,79.7829872 45.7587786,79.7550617 C45.7587786,79.6992108 45.7888041,79.6573227 45.8338422,79.6154345 C45.9389313,79.4478819 46.0139949,79.2942919 46.0890585,79.140702 C46.1340967,79.042963 46.1641221,78.9731494 46.1941476,78.9033358 C46.2842239,78.6938949 46.3442748,78.5123796 46.3743003,78.3308642 C46.389313,78.288976 46.4043257,78.2331252 46.4043257,78.1633115 C46.4343511,78.0516098 46.4493639,77.939908 46.4643766,77.842169 C46.4793893,77.7444299 46.4793893,77.6327282 46.4793893,77.5210264 L46.4793893,72.9691794 C46.4793893,72.787664 46.4493639,72.5921859 46.3592875,72.3827451 C46.2842239,72.1733043 46.1791349,72.0057516 46.0590331,71.8661244 L45.5936387,71.3913919 L45.3083969,71.0283612 L44.978117,70.6932559 C44.8580153,70.5536287 44.7379135,70.4000387 44.6178117,70.2185234 C44.4977099,70.0509707 44.437659,69.8694553 44.4076336,69.68794 C44.4076336,69.5064246 44.4676845,69.3388719 44.5877863,69.1713193 C44.707888,69.0037666 44.8279898,68.8641394 44.9480916,68.7524377 Z M40.4743003,63.0975357 L40.4743003,67.286352 L33.1631043,67.286352 L33.1631043,63.0975357 L40.4743003,63.0975357 Z M40.4743003,71.7404599 L40.4743003,76.3341951 L33.1631043,76.3341951 L33.1631043,71.7404599 L40.4743003,71.7404599 Z M21.6783715,58.6434277 C21.6783715,58.2245461 21.4531807,58.0011426 20.9727735,58.0151053 L16.0035623,58.0151053 C15.8083969,58.0151053 15.5982188,58.0430307 15.3580153,58.1128443 C15.1178117,58.182658 14.937659,58.2664343 14.7875318,58.378136 L13.0160305,59.6487436 C12.880916,59.7604454 12.7458015,59.9000726 12.6407125,60.0955507 C12.5356234,60.2910288 12.4755725,60.4725442 12.4755725,60.6540595 L12.4755725,65.3455338 C12.4755725,65.5270491 12.5356234,65.6387509 12.6407125,65.6946018 C12.7458015,65.7504527 12.8659033,65.7225272 13.0160305,65.6108255 L14.7875318,64.3402179 C14.9226463,64.2285161 15.0577608,64.1726652 15.1628499,64.1587025 C15.2679389,64.1447398 15.3279898,64.1866279 15.3279898,64.2704043 L15.3279898,80.8162285 C15.3279898,81.2490729 15.5681934,81.4585137 16.0185751,81.4585137 L20.9877863,81.4585137 C21.4531807,81.4585137 21.6783715,81.2351101 21.6783715,80.8162285 L21.6783715,58.6434277 Z M57.0783715,47.8921327 L57.0783715,32.9799467 C57.0783715,32.9799467 29.8452926,39.7379037 1.9216285,32.9799467 L1.9216285,47.8921327 C32.1872774,55.2644493 57.0783715,47.8921327 57.0783715,47.8921327 Z M11.1844784,46.2445316 C9.2778626,45.9373517 8.33206107,45.7558364 6.45547074,45.3648802 L6.45547074,43.8569063 C7.956743,44.1640862 8.72239186,44.3176761 10.2236641,44.5690051 L10.2236641,43.2285839 C9.09770992,43.0331058 8.52722646,42.9353667 7.40127226,42.7119632 C7.14605598,42.6561123 6.92086514,42.5444106 6.72569975,42.3628952 C6.53053435,42.1813798 6.44045802,41.971939 6.44045802,41.7624982 C6.44045802,40.6454805 6.42544529,40.0869717 6.42544529,38.9839167 C6.42544529,38.7744759 6.51552163,38.620886 6.71068702,38.5091842 C6.90585242,38.3974824 7.13104326,38.369557 7.38625954,38.4254079 C9.2778626,38.8024014 10.2236641,38.969954 12.1152672,39.2631711 L12.1152672,40.771145 C10.5989822,40.5337787 9.84834606,40.4081143 8.34707379,40.1148971 L8.34707379,41.371542 C9.47302799,41.5809828 10.0435115,41.6787219 11.1694656,41.8742 C11.4246819,41.9160881 11.6498728,42.0277899 11.8300254,42.1953425 C12.0101781,42.3768579 12.1152672,42.572336 12.1152672,42.7817768 C12.1152672,43.9267199 12.1152672,44.4852288 12.1302799,45.6301719 C12.1302799,45.8535754 12.0402036,46.0211281 11.8600509,46.1328298 C11.6648855,46.2445316 11.4547074,46.2864198 11.1844784,46.2445316 Z M15.5081425,41.2877657 L15.5081425,42.5862987 C16.4389313,42.6980005 16.9043257,42.7538514 17.8351145,42.8515904 L17.8351145,44.3456015 C16.9043257,44.2478625 16.4389313,44.1920116 15.5081425,44.0803099 L15.5081425,45.3648802 C17.1895674,45.574321 18.0452926,45.6580973 19.7267176,45.8116872 L19.7267176,47.3056984 C17.2796438,47.0962576 16.0636132,46.9566304 13.6315522,46.6215251 C13.6165394,43.77313 13.6165394,42.3628952 13.6015267,39.5145001 C16.0335878,39.8635681 17.264631,39.9892326 19.7117048,40.2126362 L19.7117048,41.7345727 C18.0452926,41.5809828 17.1895674,41.4972065 15.5081425,41.2877657 Z M26.7226463,47.6966546 C26.46743,47.026444 26.3473282,46.6773759 26.092112,46.0071653 C24.8760814,45.9652772 24.2755725,45.9513145 23.059542,45.8815008 C22.8043257,46.5377487 22.6692112,46.8588913 22.4139949,47.5151392 C21.6183206,47.4592883 21.2279898,47.4313629 20.4323155,47.375512 C21.4982188,44.624856 22.0236641,43.2425466 23.0895674,40.4639651 C24.2605598,40.5337787 24.846056,40.5617042 26.0320611,40.5896296 C26.9178117,42.9632922 27.8185751,45.3509175 28.7043257,47.72458 C27.9086514,47.72458 27.5183206,47.7106173 26.7226463,47.6966546 Z M24.575827,42.0277899 C24.2005089,42.9632922 24.0203562,43.4380247 23.6450382,44.373527 C24.3806616,44.4154152 24.7559796,44.4293779 25.4916031,44.4573033 C25.116285,43.4799129 24.9361323,43.0051803 24.575827,42.0277899 Z M34.3340967,47.626841 C32.4124682,47.7106173 31.4516539,47.72458 29.5300254,47.7385427 L29.5300254,46.2305689 C31.0613232,46.2305689 31.826972,46.2166061 33.3582697,46.1607553 L33.3582697,44.8342968 C32.2173028,44.8761849 31.6468193,44.8901477 30.4908397,44.9041104 C30.2356234,44.9041104 29.9954198,44.8342968 29.8152672,44.6946696 C29.6201018,44.5550424 29.5300254,44.373527 29.5300254,44.1501235 L29.5300254,41.371542 C29.5300254,41.1621012 29.6201018,40.9945485 29.8152672,40.8409586 C30.0104326,40.6873687 30.2356234,40.6175551 30.5058524,40.6175551 C32.4274809,40.6035924 33.3882952,40.5756669 35.2949109,40.4779279 L35.2949109,41.9859017 C33.7636132,42.069678 33.0129771,42.0976035 31.4816794,42.1255289 L31.4816794,43.3821738 C32.6226463,43.3682111 33.1931298,43.3402856 34.3491094,43.2983975 C34.6043257,43.2844348 34.8295165,43.3542484 35.0246819,43.4799129 C35.2048346,43.6195401 35.3099237,43.7870927 35.3099237,44.0104962 L35.3099237,46.8588913 C35.3099237,47.0822948 35.2198473,47.2638102 35.0246819,47.4174001 C34.8145038,47.5291019 34.589313,47.6128782 34.3340967,47.626841 Z M42.5910941,46.9566304 C40.7295165,47.1800339 39.7987277,47.2638102 37.9371501,47.4034374 C37.6819338,47.4174001 37.456743,47.375512 37.2615776,47.2358848 C37.0814249,47.1102203 36.9763359,46.9287049 36.9763359,46.7192641 C36.9763359,44.471266 36.9763359,43.3542484 36.9913486,41.1062503 C36.9913486,40.8968095 37.0814249,40.7152941 37.2765903,40.5617042 C37.456743,40.4081143 37.6819338,40.3103752 37.9521628,40.2964125 C39.8137405,40.1567853 40.7445293,40.073009 42.6061069,39.8496054 C42.8613232,39.82168 43.086514,39.8635681 43.2816794,39.9892326 C43.4618321,40.1148971 43.5669211,40.2824498 43.5519084,40.4779279 C43.5519084,42.7259259 43.5368957,43.8429436 43.5368957,46.0909417 C43.5368957,46.3143452 43.4468193,46.4958606 43.2516539,46.6634132 C43.0715013,46.8309659 42.8463104,46.9287049 42.5910941,46.9566304 Z M38.9129771,45.8116872 C40.0089059,45.7139482 40.5493639,45.67206 41.6302799,45.5463955 C41.6302799,43.9127572 41.6302799,43.1029194 41.6452926,41.469281 C40.5643766,41.5809828 40.0089059,41.6368337 38.9279898,41.7345727 C38.9129771,43.3682111 38.9129771,44.1920116 38.9129771,45.8116872 Z M52.4094148,45.3648802 C51.748855,45.5045074 51.4185751,45.574321 50.7580153,45.6999855 C49.3167939,44.0523844 48.6111959,43.2146212 47.1549618,41.5251319 C47.1549618,43.4519874 47.1399491,44.4154152 47.1399491,46.3422706 C46.389313,46.4679351 46.0139949,46.523786 45.2483461,46.6215251 C45.2633588,43.77313 45.2633588,42.3628952 45.2783715,39.5145001 C46.3743003,39.3609102 46.9147583,39.2771339 47.9956743,39.0956185 C49.0165394,40.2964125 49.5119593,40.8828468 50.5328244,42.0557153 C50.5328244,40.6873687 50.5478372,40.0031954 50.5478372,38.6348487 C51.313486,38.4952215 51.6888041,38.4114452 52.4394402,38.2578552 C52.4394402,41.1062503 52.4244275,42.5164851 52.4094148,45.3648802 Z M12.1152672,22.061099 C12.0852417,22.0471363 12.0402036,22.0331736 11.9501272,22.0331736 L10.1936387,22.0331736 C10.1486005,22.0331736 10.1335878,22.061099 10.1335878,22.0890244 L10.1335878,23.8902154 C10.1335878,23.9321036 10.1636132,23.9460663 10.1936387,23.9460663 L10.5989822,23.9460663 C10.6440204,23.9460663 10.6590331,23.9181409 10.6590331,23.8902154 L10.6590331,22.5079061 L10.989313,22.5079061 L10.989313,23.8902154 C10.989313,23.9041782 10.989313,23.9181409 11.0043257,23.9321036 C11.0193384,23.9460663 11.0343511,23.9460663 11.0493639,23.9460663 L11.4096692,23.9460663 C11.4396947,23.9460663 11.4396947,23.9460663 11.4547074,23.9321036 C11.4697201,23.9181409 11.4697201,23.9041782 11.4697201,23.8902154 L11.4697201,22.5079061 L11.8,22.5079061 L11.8,23.8902154 C11.8,23.9041782 11.8,23.9181409 11.8150127,23.9321036 C11.8300254,23.9460663 11.8450382,23.9460663 11.8600509,23.9460663 L12.2653944,23.9460663 C12.2804071,23.9460663 12.2954198,23.9460663 12.3104326,23.9321036 C12.3254453,23.9181409 12.3254453,23.9041782 12.3254453,23.8902154 L12.3254453,22.3543161 C12.3254453,22.312428 12.3104326,22.2705398 12.2954198,22.2286517 C12.2804071,22.1867635 12.2503817,22.1588381 12.2203562,22.1309126 C12.1903308,22.1029872 12.1603053,22.0750617 12.1152672,22.061099 Z M14.1569975,22.0331736 L13.1061069,22.0331736 C13.0610687,22.0331736 13.0160305,22.0471363 12.9709924,22.061099 C12.9259542,22.0750617 12.8959288,22.1029872 12.8659033,22.1309126 C12.8358779,22.1588381 12.8058524,22.1867635 12.7908397,22.2286517 C12.775827,22.2705398 12.7608142,22.312428 12.7608142,22.3543161 L12.7608142,23.8902154 C12.7608142,23.9321036 12.7908397,23.9460663 12.8208651,23.9460663 L13.2262087,23.9460663 C13.2712468,23.9460663 13.2862595,23.9181409 13.2862595,23.8902154 L13.2862595,23.4015202 C13.2862595,23.3875575 13.2862595,23.3735948 13.3012723,23.3596321 C13.316285,23.3456693 13.3312977,23.3456693 13.3463104,23.3456693 L13.9167939,23.3456693 C13.9318066,23.3456693 13.9468193,23.3456693 13.9618321,23.3596321 C13.9768448,23.3735948 13.9768448,23.3875575 13.9768448,23.4015202 L13.9768448,23.8902154 C13.9768448,23.9041782 13.9768448,23.9181409 13.9918575,23.9321036 C14.0068702,23.9460663 14.021883,23.9460663 14.0368957,23.9460663 L14.4422392,23.9460663 C14.4572519,23.9460663 14.4722646,23.9460663 14.4872774,23.9321036 C14.5022901,23.9181409 14.5022901,23.9041782 14.5022901,23.8902154 L14.5022901,22.3543161 C14.5022901,22.312428 14.4872774,22.2705398 14.4722646,22.2286517 C14.4572519,22.1867635 14.4272265,22.1588381 14.397201,22.1309126 C14.3671756,22.1029872 14.3371501,22.0750617 14.292112,22.061099 C14.2470738,22.0471363 14.2020356,22.0331736 14.1569975,22.0331736 Z M13.9918575,22.9407504 L13.3012723,22.9407504 L13.3012723,22.4660179 L13.9918575,22.4660179 L13.9918575,22.9407504 Z M16.3338422,22.0471363 L16.3188295,22.0331736 L15.913486,22.0331736 C15.8834606,22.0331736 15.8834606,22.0331736 15.8684478,22.0471363 C15.8534351,22.061099 15.8534351,22.0750617 15.8534351,22.0890244 L15.8534351,23.4294457 C15.8534351,23.4573711 15.8534351,23.4573711 15.8384224,23.4713338 C15.8234097,23.4852965 15.8083969,23.4852965 15.7933842,23.4852965 L15.373028,23.4852965 C15.3580153,23.4852965 15.3430025,23.4852965 15.3279898,23.4713338 C15.3129771,23.4573711 15.3129771,23.4434084 15.3129771,23.4294457 L15.3129771,23.0384895 C15.3129771,22.9966013 15.2829517,22.9826386 15.2529262,22.9826386 L14.8475827,22.9826386 C14.8025445,22.9826386 14.7875318,23.010564 14.7875318,23.0384895 L14.7875318,23.6249237 C14.7875318,23.6668119 14.8025445,23.7087001 14.8175573,23.7505882 C14.83257,23.7924764 14.8625954,23.8204018 14.8926209,23.8483273 C14.9226463,23.8762527 14.9526718,23.9041782 14.9977099,23.9181409 C15.0427481,23.9321036 15.0877863,23.9460663 15.1328244,23.9460663 L16.0035623,23.9460663 C16.0486005,23.9460663 16.0936387,23.9321036 16.1386768,23.9181409 C16.183715,23.9041782 16.2137405,23.8762527 16.2437659,23.8483273 C16.2737913,23.8204018 16.3038168,23.7924764 16.3188295,23.7505882 C16.3338422,23.7087001 16.348855,23.6668119 16.348855,23.6249237 L16.348855,22.0890244 C16.348855,22.0750617 16.348855,22.061099 16.3338422,22.0471363 Z M18.1804071,22.0331736 L17.1445293,22.0331736 C17.0994911,22.0331736 17.0544529,22.0471363 17.0094148,22.061099 C16.9793893,22.0750617 16.9343511,22.1029872 16.9043257,22.1309126 C16.8743003,22.1588381 16.8442748,22.1867635 16.8292621,22.2286517 C16.8142494,22.2705398 16.7992366,22.312428 16.7992366,22.3543161 L16.7992366,23.6249237 C16.7992366,23.6668119 16.8142494,23.7087001 16.8292621,23.7505882 C16.8442748,23.7924764 16.8743003,23.8204018 16.9043257,23.8483273 C16.9343511,23.8762527 16.9643766,23.9041782 17.0094148,23.9181409 C17.0544529,23.9321036 17.0994911,23.9460663 17.1445293,23.9460663 L18.1804071,23.9460663 C18.2254453,23.9460663 18.2704835,23.9321036 18.3155216,23.9181409 C18.3605598,23.9041782 18.3905852,23.8762527 18.4206107,23.8483273 C18.4506361,23.8204018 18.4806616,23.7924764 18.4956743,23.7505882 C18.510687,23.7087001 18.5256997,23.6668119 18.5256997,23.6249237 L18.5256997,22.3543161 C18.5256997,22.312428 18.510687,22.2705398 18.4956743,22.2286517 C18.4806616,22.1867635 18.4506361,22.1588381 18.4206107,22.1309126 C18.3905852,22.1029872 18.3605598,22.0750617 18.3155216,22.061099 C18.2704835,22.0471363 18.2254453,22.0331736 18.1804071,22.0331736 Z M18.0002545,22.4939434 L18.0002545,23.4713338 L17.3096692,23.4713338 L17.3096692,22.4939434 L18.0002545,22.4939434 Z M20.7625954,23.8902154 L20.4473282,23.3596321 C20.4473282,23.3596321 20.4473282,23.3456693 20.462341,23.3456693 L20.4773537,23.3456693 C20.5374046,23.3317066 20.5974555,23.2898184 20.6424936,23.2339676 C20.6875318,23.1781167 20.7025445,23.1222658 20.7025445,23.0524522 L20.7025445,22.3403534 C20.7025445,22.2984653 20.6875318,22.2565771 20.6725191,22.2146889 C20.6575064,22.1728008 20.6274809,22.1448753 20.5974555,22.1169499 C20.56743,22.0890244 20.5374046,22.061099 20.4923664,22.0471363 C20.4473282,22.0331736 20.4022901,22.0192108 20.3572519,22.0192108 L19.0361323,22.0192108 C18.9910941,22.0192108 18.9760814,22.0471363 18.9760814,22.0750617 L18.9760814,23.8762527 C18.9760814,23.9181409 19.0061069,23.9321036 19.0361323,23.9321036 L19.4414758,23.9321036 C19.486514,23.9321036 19.5015267,23.9041782 19.5015267,23.8762527 L19.5015267,23.3735948 C19.5015267,23.3596321 19.5015267,23.3596321 19.5165394,23.3596321 L19.8618321,23.3596321 C19.8618321,23.3596321 19.8768448,23.3596321 19.8768448,23.3735948 L20.192112,23.8902154 C20.192112,23.9041782 20.2071247,23.9041782 20.2221374,23.9181409 C20.2371501,23.9321036 20.2521628,23.9321036 20.2671756,23.9321036 L20.73257,23.9321036 C20.7475827,23.9321036 20.7625954,23.9321036 20.7625954,23.9181409 C20.7776081,23.9181409 20.7776081,23.9041782 20.7625954,23.8902154 Z M20.1770992,22.4799806 L20.1770992,22.9407504 L19.4715013,22.9407504 L19.4715013,22.4799806 L20.1770992,22.4799806 Z M23.5099237,23.4713338 L23.5099237,23.4852965 L22.7743003,23.4852965 C22.7592875,23.4852965 22.7442748,23.4852965 22.7292621,23.4713338 C22.7142494,23.4573711 22.7142494,23.4434084 22.7142494,23.4294457 L22.7142494,22.0890244 C22.7142494,22.0471363 22.6842239,22.0331736 22.6541985,22.0331736 L22.248855,22.0331736 C22.2038168,22.0331736 22.1888041,22.061099 22.1888041,22.0890244 L22.1888041,23.8902154 C22.1888041,23.9321036 22.2188295,23.9460663 22.248855,23.9460663 L23.5099237,23.9460663 C23.5249364,23.9460663 23.5399491,23.9460663 23.5549618,23.9321036 C23.5699746,23.9181409 23.5699746,23.9041782 23.5699746,23.8902154 L23.5699746,23.5271847 C23.5699746,23.513222 23.5699746,23.4992593 23.5549618,23.4852965 C23.5399491,23.4713338 23.5249364,23.4713338 23.5099237,23.4713338 Z M25.386514,22.0471363 C25.386514,22.0471363 25.3715013,22.0331736 25.3264631,22.0471363 L23.8852417,22.0471363 C23.870229,22.0471363 23.8552163,22.0471363 23.8402036,22.061099 C23.8251908,22.0750617 23.8251908,22.0890244 23.8251908,22.1029872 L23.8251908,23.9041782 C23.8251908,23.9460663 23.8552163,23.960029 23.8852417,23.960029 L25.3414758,23.960029 C25.3564885,23.960029 25.3715013,23.960029 25.386514,23.9460663 C25.4015267,23.9321036 25.4015267,23.9181409 25.4015267,23.9041782 L25.4015267,23.5690729 C25.4015267,23.5551101 25.4015267,23.5411474 25.386514,23.5271847 C25.3715013,23.513222 25.3564885,23.513222 25.3414758,23.513222 L24.3656489,23.513222 C24.3506361,23.513222 24.3506361,23.513222 24.3506361,23.4992593 L24.3506361,23.2060421 C24.3506361,23.1920794 24.3506361,23.1920794 24.3656489,23.1920794 L25.2063613,23.1920794 C25.2363868,23.1920794 25.2363868,23.1920794 25.2513995,23.1781167 C25.2664122,23.164154 25.2664122,23.1501912 25.2664122,23.1362285 L25.2664122,22.8709368 C25.2664122,22.8569741 25.2664122,22.8430114 25.2513995,22.8290487 C25.2363868,22.8150859 25.221374,22.8150859 25.2063613,22.8150859 L24.3656489,22.8150859 C24.3506361,22.8150859 24.3506361,22.8150859 24.3506361,22.8011232 L24.3506361,22.5079061 C24.3506361,22.4939434 24.3506361,22.4939434 24.3656489,22.4939434 L25.3414758,22.4939434 C25.3564885,22.4939434 25.3715013,22.4939434 25.386514,22.4799806 C25.4015267,22.4660179 25.4015267,22.4520552 25.4015267,22.4380925 L25.4015267,22.0890244 C25.4015267,22.0750617 25.4015267,22.061099 25.386514,22.0471363 Z M27.2480916,22.0331736 L26.197201,22.0331736 C26.1521628,22.0331736 26.1071247,22.0471363 26.0620865,22.061099 C26.0170483,22.0750617 25.9870229,22.1029872 25.9569975,22.1309126 C25.926972,22.1588381 25.8969466,22.1867635 25.8819338,22.2286517 C25.8669211,22.2705398 25.8519084,22.312428 25.8519084,22.3543161 L25.8519084,23.8902154 C25.8519084,23.9321036 25.8819338,23.9460663 25.9119593,23.9460663 L26.3173028,23.9460663 C26.362341,23.9460663 26.3773537,23.9181409 26.3773537,23.8902154 L26.3773537,23.4015202 C26.3773537,23.3875575 26.3773537,23.3735948 26.3923664,23.3596321 C26.4073791,23.3456693 26.4223919,23.3456693 26.4374046,23.3456693 L27.007888,23.3456693 C27.0229008,23.3456693 27.0379135,23.3456693 27.0529262,23.3596321 C27.0679389,23.3735948 27.0679389,23.3875575 27.0679389,23.4015202 L27.0679389,23.8902154 C27.0679389,23.9041782 27.0679389,23.9181409 27.0829517,23.9321036 C27.0979644,23.9460663 27.1129771,23.9460663 27.1279898,23.9460663 L27.5333333,23.9460663 C27.5483461,23.9460663 27.5633588,23.9460663 27.5783715,23.9321036 C27.5933842,23.9181409 27.5933842,23.9041782 27.5933842,23.8902154 L27.5933842,22.3543161 C27.5933842,22.312428 27.5783715,22.2705398 27.5633588,22.2286517 C27.5483461,22.1867635 27.5183206,22.1588381 27.4882952,22.1309126 C27.4582697,22.1029872 27.4282443,22.0750617 27.3832061,22.061099 C27.3381679,22.0471363 27.2931298,22.0331736 27.2480916,22.0331736 Z M27.0679389,22.9407504 L26.3773537,22.9407504 L26.3773537,22.4660179 L27.0679389,22.4660179 L27.0679389,22.9407504 Z M29.7402036,22.912825 C29.7251908,22.8988623 29.7101781,22.8988623 29.6951654,22.912825 L29.2898219,22.912825 C29.2748092,22.912825 29.2597964,22.912825 29.2447837,22.9267877 C29.229771,22.9407504 29.229771,22.9547131 29.229771,22.9686759 L29.229771,23.4434084 C29.229771,23.4713338 29.229771,23.4713338 29.2147583,23.4852965 C29.1997455,23.4992593 29.1847328,23.4992593 29.1697201,23.4992593 L28.5992366,23.4992593 C28.5842239,23.4992593 28.5692112,23.4992593 28.5541985,23.4852965 C28.5391858,23.4713338 28.5391858,23.4573711 28.5391858,23.4434084 L28.5391858,22.563757 C28.5391858,22.5358315 28.5391858,22.5358315 28.5541985,22.5218688 C28.5692112,22.5079061 28.5842239,22.5079061 28.5992366,22.5079061 L29.5750636,22.5079061 C29.5900763,22.5079061 29.6050891,22.5079061 29.6201018,22.4939434 C29.6351145,22.4799806 29.6351145,22.4660179 29.6351145,22.4520552 L29.6351145,22.0890244 C29.6351145,22.0750617 29.6351145,22.061099 29.6201018,22.0471363 C29.6050891,22.0331736 29.5900763,22.0331736 29.5750636,22.0331736 L28.3740458,22.0331736 C28.3290076,22.0331736 28.2839695,22.0471363 28.2389313,22.061099 C28.2089059,22.0750617 28.1638677,22.1029872 28.1338422,22.1309126 C28.1038168,22.1588381 28.0737913,22.1867635 28.0587786,22.2286517 C28.0437659,22.2705398 28.0287532,22.312428 28.0287532,22.3543161 L28.0287532,23.6249237 C28.0287532,23.6668119 28.0437659,23.7087001 28.0587786,23.7505882 C28.0737913,23.7924764 28.1038168,23.8204018 28.1338422,23.8483273 C28.1638677,23.8762527 28.1938931,23.9041782 28.2389313,23.9181409 C28.2839695,23.9321036 28.3290076,23.9460663 28.3740458,23.9460663 L29.4099237,23.9460663 C29.4549618,23.9460663 29.5,23.9321036 29.5450382,23.9181409 C29.5900763,23.9041782 29.6201018,23.8762527 29.6501272,23.8483273 C29.6801527,23.8204018 29.7101781,23.7924764 29.7251908,23.7505882 C29.7402036,23.7087001 29.7552163,23.6668119 29.7552163,23.6249237 L29.7552163,22.9547131 C29.7552163,22.9407504 29.7552163,22.9267877 29.7402036,22.912825 Z M31.8870229,22.0471363 C31.8720102,22.0471363 31.8569975,22.0331736 31.8569975,22.0331736 L31.4516539,22.0331736 C31.4366412,22.0331736 31.4216285,22.0331736 31.4066158,22.0471363 C31.3916031,22.061099 31.3916031,22.0750617 31.3916031,22.0890244 L31.3916031,23.4294457 C31.3916031,23.4573711 31.3916031,23.4573711 31.3765903,23.4713338 C31.3615776,23.4852965 31.3465649,23.4852965 31.3315522,23.4852965 L30.7610687,23.4852965 C30.746056,23.4852965 30.7310433,23.4852965 30.7160305,23.4713338 C30.7010178,23.4573711 30.7010178,23.4434084 30.7010178,23.4294457 L30.7010178,22.0890244 C30.7010178,22.0471363 30.6709924,22.0331736 30.6409669,22.0331736 L30.2356234,22.0331736 C30.1905852,22.0331736 30.1755725,22.061099 30.1755725,22.0890244 L30.1755725,23.6249237 C30.1755725,23.6668119 30.1905852,23.7087001 30.205598,23.7505882 C30.2206107,23.7924764 30.2506361,23.8204018 30.2806616,23.8483273 C30.310687,23.8762527 30.3407125,23.9041782 30.3857506,23.9181409 C30.4307888,23.9321036 30.475827,23.9460663 30.5208651,23.9460663 L31.556743,23.9460663 C31.6017812,23.9460663 31.6468193,23.9321036 31.6918575,23.9181409 C31.7368957,23.9041782 31.7669211,23.8762527 31.7969466,23.8483273 C31.826972,23.8204018 31.8569975,23.7924764 31.8720102,23.7505882 C31.8870229,23.7087001 31.9020356,23.6668119 31.9020356,23.6249237 L31.9020356,22.0890244 C31.9020356,22.0750617 31.9020356,22.061099 31.8870229,22.0471363 Z M33.9137405,22.0471363 C33.8987277,22.0471363 33.883715,22.0331736 33.8536896,22.0471363 L32.4124682,22.0471363 C32.3974555,22.0471363 32.3824427,22.0471363 32.36743,22.061099 C32.3524173,22.0750617 32.3524173,22.0890244 32.3524173,22.1029872 L32.3524173,23.9041782 C32.3524173,23.9460663 32.3824427,23.960029 32.4124682,23.960029 L33.8687023,23.960029 C33.883715,23.960029 33.8987277,23.960029 33.9137405,23.9460663 C33.9287532,23.9321036 33.9287532,23.9181409 33.9287532,23.9041782 L33.9287532,23.5690729 C33.9287532,23.5551101 33.9287532,23.5411474 33.9137405,23.5271847 C33.8987277,23.513222 33.883715,23.513222 33.8687023,23.513222 L32.8928753,23.513222 C32.8778626,23.513222 32.8778626,23.513222 32.8778626,23.4992593 L32.8778626,23.2060421 C32.8778626,23.1920794 32.8778626,23.1920794 32.8928753,23.1920794 L33.7335878,23.1920794 C33.7636132,23.1920794 33.7636132,23.1920794 33.778626,23.1781167 C33.7936387,23.164154 33.7936387,23.1501912 33.7936387,23.1362285 L33.7936387,22.8709368 C33.7936387,22.8569741 33.7936387,22.8430114 33.778626,22.8290487 C33.7636132,22.8150859 33.7486005,22.8150859 33.7335878,22.8150859 L32.8928753,22.8150859 C32.8778626,22.8150859 32.8778626,22.8150859 32.8778626,22.8011232 L32.8778626,22.5079061 C32.8778626,22.4939434 32.8778626,22.4939434 32.8928753,22.4939434 L33.8687023,22.4939434 C33.883715,22.4939434 33.8987277,22.4939434 33.9137405,22.4799806 C33.9287532,22.4660179 33.9287532,22.4520552 33.9287532,22.4380925 L33.9287532,22.0890244 C33.9287532,22.0750617 33.9287532,22.061099 33.9137405,22.0471363 Z M37.0814249,22.0471363 C37.0664122,22.0331736 37.0513995,22.0331736 37.0363868,22.0331736 L36.6310433,22.0331736 C36.6160305,22.0331736 36.6010178,22.0331736 36.5860051,22.0471363 C36.5709924,22.061099 36.5709924,22.0750617 36.5709924,22.0890244 L36.5709924,22.7033842 C36.5709924,22.7173469 36.5709924,22.7313096 36.5559796,22.7452723 C36.5409669,22.7592351 36.5259542,22.7592351 36.5109415,22.7592351 L35.940458,22.7592351 C35.8954198,22.7592351 35.8804071,22.7313096 35.8804071,22.7033842 L35.8804071,22.0890244 C35.8804071,22.0471363 35.8503817,22.0331736 35.8203562,22.0331736 L35.4150127,22.0331736 C35.3699746,22.0331736 35.3549618,22.061099 35.3549618,22.0890244 L35.3549618,23.8902154 C35.3549618,23.9321036 35.3849873,23.9460663 35.4150127,23.9460663 L35.8203562,23.9460663 C35.8653944,23.9460663 35.8804071,23.9181409 35.8804071,23.8902154 L35.8804071,23.261893 C35.8804071,23.2339676 35.8804071,23.2339676 35.8954198,23.2200048 C35.9104326,23.2060421 35.9254453,23.2060421 35.940458,23.2060421 L36.5109415,23.2060421 C36.5409669,23.2060421 36.5409669,23.2060421 36.5559796,23.2200048 C36.5709924,23.2339676 36.5709924,23.2479303 36.5709924,23.261893 L36.5709924,23.8902154 C36.5709924,23.9041782 36.5709924,23.9181409 36.5860051,23.9321036 C36.6010178,23.9460663 36.6160305,23.9460663 36.6310433,23.9460663 L37.0363868,23.9460663 C37.0513995,23.9460663 37.0664122,23.9460663 37.0814249,23.9321036 C37.0964377,23.9181409 37.0964377,23.9041782 37.0964377,23.8902154 L37.0964377,22.0890244 C37.0964377,22.0750617 37.0964377,22.061099 37.0814249,22.0471363 Z M38.9279898,22.0331736 L37.8770992,22.0331736 C37.8320611,22.0331736 37.7870229,22.0471363 37.7419847,22.061099 C37.6969466,22.0750617 37.6669211,22.1029872 37.6368957,22.1309126 C37.6068702,22.1588381 37.5768448,22.1867635 37.5618321,22.2286517 C37.5468193,22.2705398 37.5318066,22.312428 37.5318066,22.3543161 L37.5318066,23.8902154 C37.5318066,23.9321036 37.5618321,23.9460663 37.5918575,23.9460663 L37.997201,23.9460663 C38.0422392,23.9460663 38.0572519,23.9181409 38.0572519,23.8902154 L38.0572519,23.4015202 C38.0572519,23.3875575 38.0572519,23.3735948 38.0722646,23.3596321 C38.0872774,23.3456693 38.1022901,23.3456693 38.1173028,23.3456693 L38.6877863,23.3456693 C38.702799,23.3456693 38.7178117,23.3456693 38.7328244,23.3596321 C38.7478372,23.3735948 38.7478372,23.3875575 38.7478372,23.4015202 L38.7478372,23.8902154 C38.7478372,23.9041782 38.7478372,23.9181409 38.7628499,23.9321036 C38.7778626,23.9460663 38.7928753,23.9460663 38.807888,23.9460663 L39.2132316,23.9460663 C39.2282443,23.9460663 39.243257,23.9460663 39.2582697,23.9321036 C39.2732824,23.9181409 39.2732824,23.9041782 39.2732824,23.8902154 L39.2732824,22.3543161 C39.2732824,22.312428 39.2582697,22.2705398 39.243257,22.2286517 C39.2282443,22.1867635 39.1982188,22.1588381 39.1681934,22.1309126 C39.1381679,22.1029872 39.1081425,22.0750617 39.0631043,22.061099 C39.0180662,22.0471363 38.973028,22.0331736 38.9279898,22.0331736 Z M38.7478372,22.9407504 L38.0572519,22.9407504 L38.0572519,22.4660179 L38.7478372,22.4660179 L38.7478372,22.9407504 Z M40.2491094,22.5079061 C40.2641221,22.5079061 40.2791349,22.4939434 40.2941476,22.5218688 L41.2249364,22.5218688 C41.2399491,22.5218688 41.2549618,22.5218688 41.2699746,22.5079061 C41.2849873,22.4939434 41.2849873,22.4799806 41.2849873,22.4660179 L41.2849873,22.1029872 C41.2849873,22.0890244 41.2849873,22.0750617 41.2699746,22.061099 C41.2549618,22.0471363 41.2399491,22.0471363 41.2249364,22.0471363 L40.0689567,22.0471363 C40.0239186,22.0471363 39.9788804,22.061099 39.9338422,22.0750617 C39.9038168,22.0890244 39.8587786,22.1169499 39.8287532,22.1448753 C39.7987277,22.1728008 39.7687023,22.2007262 39.7536896,22.2426144 C39.7386768,22.2845025 39.7236641,22.3263907 39.7236641,22.3682789 L39.7236641,23.6388865 C39.7236641,23.6807746 39.7386768,23.7226628 39.7536896,23.764551 C39.7687023,23.8064391 39.7987277,23.8343646 39.8287532,23.86229 C39.8587786,23.8902154 39.8888041,23.9181409 39.9338422,23.9321036 C39.9788804,23.9460663 40.0239186,23.960029 40.0689567,23.960029 L41.2249364,23.960029 C41.2399491,23.960029 41.2549618,23.960029 41.2699746,23.9460663 C41.2849873,23.9321036 41.2849873,23.9181409 41.2849873,23.9041782 L41.2849873,23.5411474 C41.2849873,23.5271847 41.2849873,23.513222 41.2699746,23.4992593 C41.2549618,23.4852965 41.2399491,23.4852965 41.2249364,23.4852965 L40.2941476,23.4852965 C40.2791349,23.4852965 40.2641221,23.4852965 40.2491094,23.4713338 C40.2340967,23.4573711 40.2340967,23.4434084 40.2340967,23.4294457 L40.2340967,22.5497942 C40.2340967,22.5218688 40.2340967,22.5218688 40.2491094,22.5079061 Z M42.9063613,22.8290487 L43.5969466,22.061099 C43.6119593,22.0471363 43.6119593,22.0471363 43.6119593,22.0331736 C43.6119593,22.0192108 43.5969466,22.0192108 43.5819338,22.0192108 L43.1015267,22.0192108 C43.086514,22.0192108 43.0715013,22.0192108 43.0564885,22.0331736 C43.0414758,22.0471363 43.0264631,22.0471363 43.0114504,22.061099 L42.2608142,22.8848995 L42.2608142,22.0750617 C42.2608142,22.0331736 42.2307888,22.0192108 42.2007634,22.0192108 L41.7954198,22.0192108 C41.7503817,22.0192108 41.735369,22.0471363 41.735369,22.0750617 L41.735369,23.8762527 C41.735369,23.9181409 41.7653944,23.9321036 41.7954198,23.9321036 L42.2007634,23.9321036 C42.2458015,23.9321036 42.2608142,23.9041782 42.2608142,23.8762527 L42.2608142,23.4713338 C42.2608142,23.4573711 42.275827,23.4434084 42.275827,23.4294457 C42.2908397,23.4154829 42.2908397,23.4015202 42.3058524,23.3875575 L42.546056,23.1362285 C42.546056,23.1222658 42.5610687,23.1222658 42.5610687,23.1362285 L42.9964377,23.8762527 C42.9964377,23.8902154 43.0114504,23.8902154 43.0264631,23.9041782 C43.0414758,23.9181409 43.0564885,23.9181409 43.0715013,23.9181409 L43.5519084,23.9181409 C43.5669211,23.9181409 43.5819338,23.9181409 43.5819338,23.9041782 C43.5969466,23.9041782 43.5969466,23.8902154 43.5819338,23.8762527 L42.9063613,22.8430114 L42.9063613,22.8290487 Z M44.4826972,23.8762527 L44.4826972,22.0750617 C44.4826972,22.0331736 44.4526718,22.0192108 44.4226463,22.0192108 L44.0173028,22.0192108 C43.9722646,22.0192108 43.9572519,22.0471363 43.9572519,22.0750617 L43.9572519,23.8762527 C43.9572519,23.9181409 43.9872774,23.9321036 44.0173028,23.9321036 L44.4226463,23.9321036 C44.4676845,23.9321036 44.4826972,23.9041782 44.4826972,23.8762527 Z M46.4343511,22.061099 C46.4043257,22.0471363 46.3592875,22.0331736 46.2842239,22.0331736 L44.9631043,22.0331736 C44.9180662,22.0331736 44.9030534,22.061099 44.9030534,22.0890244 L44.9030534,23.8902154 C44.9030534,23.9321036 44.9330789,23.9460663 44.9631043,23.9460663 L45.3684478,23.9460663 C45.413486,23.9460663 45.4284987,23.9181409 45.4284987,23.8902154 L45.4284987,22.5497942 C45.4284987,22.5218688 45.4284987,22.5218688 45.4435115,22.5079061 C45.4585242,22.4939434 45.4735369,22.4939434 45.4885496,22.4939434 L46.0590331,22.4939434 C46.0740458,22.4939434 46.0890585,22.4939434 46.1040712,22.5079061 C46.119084,22.5218688 46.119084,22.5358315 46.119084,22.5497942 L46.119084,23.8902154 C46.119084,23.9041782 46.119084,23.9181409 46.1340967,23.9321036 C46.1491094,23.9460663 46.1641221,23.9460663 46.1791349,23.9460663 L46.5844784,23.9460663 C46.5994911,23.9460663 46.6145038,23.9460663 46.6295165,23.9321036 C46.6445293,23.9181409 46.6445293,23.9041782 46.6445293,23.8902154 L46.6445293,22.3543161 C46.6445293,22.312428 46.6295165,22.2705398 46.6145038,22.2286517 C46.5994911,22.1867635 46.5694656,22.1588381 46.5394402,22.1309126 C46.5094148,22.1029872 46.4793893,22.0750617 46.4343511,22.061099 Z M48.8063613,22.912825 C48.7913486,22.8988623 48.7763359,22.8988623 48.7613232,22.912825 L48.3559796,22.912825 C48.3409669,22.912825 48.3259542,22.912825 48.3109415,22.9267877 C48.2959288,22.9407504 48.2959288,22.9547131 48.2959288,22.9686759 L48.2959288,23.4434084 C48.2959288,23.4713338 48.2959288,23.4713338 48.280916,23.4852965 C48.2659033,23.4992593 48.2508906,23.4992593 48.2358779,23.4992593 L47.6653944,23.4992593 C47.6503817,23.4992593 47.635369,23.4992593 47.6203562,23.4852965 C47.6053435,23.4713338 47.6053435,23.4573711 47.6053435,23.4434084 L47.6053435,22.563757 C47.6053435,22.5358315 47.6053435,22.5358315 47.6203562,22.5218688 C47.635369,22.5079061 47.6503817,22.5079061 47.6653944,22.5079061 L48.6412214,22.5079061 C48.6562341,22.5079061 48.6712468,22.5079061 48.6862595,22.4939434 C48.7012723,22.4799806 48.7012723,22.4660179 48.7012723,22.4520552 L48.7012723,22.0890244 C48.7012723,22.0750617 48.7012723,22.061099 48.6862595,22.0471363 C48.6712468,22.0331736 48.6562341,22.0331736 48.6412214,22.0331736 L47.4402036,22.0331736 C47.3951654,22.0331736 47.3501272,22.0471363 47.3050891,22.061099 C47.2750636,22.0750617 47.2300254,22.1029872 47.2,22.1309126 C47.1699746,22.1588381 47.1399491,22.1867635 47.1249364,22.2286517 C47.1099237,22.2705398 47.0949109,22.312428 47.0949109,22.3543161 L47.0949109,23.6249237 C47.0949109,23.6668119 47.1099237,23.7087001 47.1249364,23.7505882 C47.1399491,23.7924764 47.1699746,23.8204018 47.2,23.8483273 C47.2300254,23.8762527 47.2600509,23.9041782 47.3050891,23.9181409 C47.3501272,23.9321036 47.3951654,23.9460663 47.4402036,23.9460663 L48.4760814,23.9460663 C48.5211196,23.9460663 48.5661578,23.9321036 48.6111959,23.9181409 C48.6562341,23.9041782 48.6862595,23.8762527 48.716285,23.8483273 C48.7463104,23.8204018 48.7763359,23.7924764 48.7913486,23.7505882 C48.8063613,23.7087001 48.821374,23.6668119 48.821374,23.6249237 L48.821374,22.9547131 C48.821374,22.9407504 48.821374,22.9267877 48.8063613,22.912825 Z M35.2198473,18.207388 C35.1597964,18.1375744 35.0697201,18.109649 34.964631,18.109649 L29.6351145,18.0956863 C29.5300254,18.0956863 29.4399491,18.0677608 29.3648855,18.0119099 C29.2898219,17.9560591 29.2597964,17.8862455 29.2597964,17.7885064 L29.2597964,9.13161946 C29.2597964,8.90821593 29.1246819,8.79651416 28.8844784,8.79651416 L26.197201,8.79651416 C25.9419847,8.79651416 25.821883,8.90821593 25.821883,9.13161946 L25.821883,20.762566 C25.821883,20.9859695 25.9569975,21.0976713 26.197201,21.0976713 L34.964631,21.0976713 C35.0697201,21.0976713 35.1597964,21.0697458 35.2198473,20.9999322 C35.2949109,20.9301186 35.3249364,20.860305 35.3249364,20.762566 L35.3249364,18.4447543 C35.3249364,18.3470153 35.2798982,18.2772016 35.2198473,18.207388 Z" fill="#434343" fill-rule="nonzero"></path>
            </g>
        </g>
    </g>
</svg>