<?xml version="1.0" encoding="UTF-8"?>
<svg width="40px" height="38px" viewBox="0 0 40 38" version="1.1" xmlns="http://www.w3.org/2000/svg" xmlns:xlink="http://www.w3.org/1999/xlink">
    <!-- Generator: Sketch 48.1 (47250) - http://www.bohemiancoding.com/sketch -->
    <title>Combined Shape</title>
    <desc>Created with Sketch.</desc>
    <defs></defs>
    <g id="Home" stroke="none" stroke-width="1" fill="none" fill-rule="evenodd" transform="translate(-925.000000, -646.000000)">
        <g id="banner" transform="translate(0.000000, 60.000000)" fill="#626262" fill-rule="nonzero">
            <g id="main" transform="translate(277.000000, 129.000000)">
                <g id="links" transform="translate(648.000000, 457.400000)">
                    <g id="join-slack">
                        <path d="M38.3233437,13.5331458 C42.4484944,26.3669479 39.2507032,31.9183135 25.5002009,35.7684541 C11.7496986,39.6185948 5.80180696,36.6339896 1.67665628,23.8001875 C-2.4484944,10.9663854 0.749296822,5.41501983 14.4997991,1.56487919 C28.2503014,-2.28526144 34.198193,0.699343701 38.3233437,13.5331458 Z M23.3457494,19.825731 L23.4734494,20.2069813 L18.136873,21.9944699 L18.0091731,21.6132195 L17.8481423,21.6671569 L16.299852,17.0447107 L21.9599902,15.1488449 L23.5082805,19.7712911 L23.3457494,19.825731 Z M31.3841368,21.8601942 C32.4713858,21.5318876 33.0469882,20.4275837 32.6952312,19.412818 C32.3434741,18.3980522 31.1602914,17.8608233 30.0730424,18.1891298 L27.4828315,18.9949732 L25.7560242,14.189759 L28.3462351,13.3839156 C29.4334841,13.055609 30.0090865,11.9513051 29.6573295,10.9365393 C29.3055725,9.9217736 28.1223897,9.38454467 27.0351407,9.71285124 L24.4449298,10.5186946 L23.5495483,8.0116263 C23.1977912,6.99686055 22.0146085,6.45963163 20.9273595,6.78793819 C19.8401104,7.11624476 19.264508,8.22054866 19.6162651,9.23531441 L20.5116466,11.7423827 L15.1713352,13.4137616 L14.2759537,10.9066933 C13.9241967,9.89192754 12.7410139,9.35469862 11.6537649,9.68300518 C10.5665159,10.0113117 9.99091346,11.1156157 10.3426705,12.1303814 L11.238052,14.6374497 L8.64784115,15.4432931 C7.56059213,15.7715997 6.98498971,16.8759036 7.33674675,17.8906693 C7.62454796,18.6666667 8.42399576,19.1740495 9.25542148,19.2038956 C9.47926687,19.2337416 9.73509017,19.1740495 9.95893555,19.1143574 L12.5491464,18.308514 L14.2759537,23.1137283 L11.6857428,23.9195717 C10.5984938,24.2478783 10.0228914,25.3521822 10.3746484,26.3669479 C10.6624496,27.1429453 11.4618974,27.6503281 12.2933231,27.6801742 C12.5171685,27.7100203 12.7729918,27.6503281 12.9968372,27.590636 L15.5870481,26.7847927 L16.4824297,29.291861 C16.7702309,30.0678583 17.5696787,30.5752412 18.4011044,30.6050872 C18.6249498,30.6349333 18.8807731,30.5752412 19.1046185,30.5155491 C20.1918675,30.1872425 20.7674699,29.0829386 20.4157129,28.0681729 L19.5203313,25.5611045 L24.8606427,23.8897257 L25.7560242,26.396794 C26.0438254,27.1727913 26.8432732,27.6801742 27.6746989,27.7100203 C27.8985443,27.7398663 28.1543676,27.6801742 28.378213,27.6204821 C29.465462,27.2921755 30.0410644,26.1878716 29.6893074,25.1731059 L28.7939259,22.6660376 L31.3841368,21.8601942 Z" id="Combined-Shape"></path>
                    </g>
                </g>
            </g>
        </g>
    </g>
</svg>